<svg width="26" height="26" viewBox="0 0 26 26" fill="none" xmlns="http://www.w3.org/2000/svg">
<path d="M2.16663 3.25H8.66663C9.8159 3.25 10.9181 3.70655 11.7308 4.5192C12.5434 5.33186 13 6.43406 13 7.58333V22.75C13 21.888 12.6575 21.0614 12.0481 20.4519C11.4386 19.8424 10.6119 19.5 9.74996 19.5H2.16663V3.25Z" stroke="#6C8DFF" stroke-width="2" stroke-linecap="round" stroke-linejoin="round"/>
<path d="M23.8333 3.25H17.3333C16.1841 3.25 15.0819 3.70655 14.2692 4.5192C13.4565 5.33186 13 6.43406 13 7.58333V22.75C13 21.888 13.3424 21.0614 13.9519 20.4519C14.5614 19.8424 15.388 19.5 16.25 19.5H23.8333V3.25Z" stroke="#6C8DFF" stroke-width="2" stroke-linecap="round" stroke-linejoin="round"/>
</svg>
