<svg width="19" height="19" viewBox="0 0 19 19" fill="none" xmlns="http://www.w3.org/2000/svg">
<g clip-path="url(#clip0_109_195)">
<path d="M9.52502 13.2188C11.5788 13.2188 13.2438 11.5538 13.2438 9.5C13.2438 7.44619 11.5788 5.78125 9.52502 5.78125C7.47122 5.78125 5.80627 7.44619 5.80627 9.5C5.80627 11.5538 7.47122 13.2188 9.52502 13.2188Z" stroke="#6C8DFF" stroke-width="2" stroke-linecap="round" stroke-linejoin="round"/>
<path d="M9.52502 1.3186V2.8061" stroke="#6C8DFF" stroke-width="2" stroke-linecap="round" stroke-linejoin="round"/>
<path d="M9.52502 16.1936V17.6811" stroke="#6C8DFF" stroke-width="2" stroke-linecap="round" stroke-linejoin="round"/>
<path d="M3.73865 3.71362L4.79477 4.76975" stroke="#6C8DFF" stroke-width="2" stroke-linecap="round" stroke-linejoin="round"/>
<path d="M14.2552 14.2302L15.3114 15.2863" stroke="#6C8DFF" stroke-width="2" stroke-linecap="round" stroke-linejoin="round"/>
<path d="M1.34375 9.5H2.83125" stroke="#6C8DFF" stroke-width="2" stroke-linecap="round" stroke-linejoin="round"/>
<path d="M16.2188 9.5H17.7063" stroke="#6C8DFF" stroke-width="2" stroke-linecap="round" stroke-linejoin="round"/>
<path d="M3.73865 15.2863L4.79477 14.2302" stroke="#6C8DFF" stroke-width="2" stroke-linecap="round" stroke-linejoin="round"/>
<path d="M14.2552 4.76975L15.3114 3.71362" stroke="#6C8DFF" stroke-width="2" stroke-linecap="round" stroke-linejoin="round"/>
</g>
<defs>
<clipPath id="clip0_109_195">
<rect width="17.85" height="17.85" fill="white" transform="translate(0.599976 0.574951)"/>
</clipPath>
</defs>
</svg>
