<svg width="35" height="34" viewBox="0 0 35 34" fill="none" xmlns="http://www.w3.org/2000/svg">
<g clip-path="url(#clip0_208_176)">
<path d="M16.4729 20.2459L13.9983 17.7563L31.1341 0.515632C31.4622 0.185479 31.9072 0 32.3712 0C32.8354 0 33.2804 0.185479 33.6086 0.515632C33.9367 0.845805 34.121 1.2936 34.121 1.76051C34.121 2.22743 33.9367 2.67522 33.6086 3.00539L16.4729 20.2459Z" fill="#D9925F"/>
<path d="M12.1436 34C11.9971 34.0002 11.852 33.9718 11.7164 33.9162C8.50774 32.7541 5.6982 30.6894 3.6219 27.9675C1.54558 25.2457 0.289828 21.9812 0.00394147 18.5621C-0.0109474 18.3823 0.0164765 18.2014 0.0839932 18.034C0.15151 17.8668 0.257222 17.7178 0.392573 17.5993C0.527924 17.4808 0.689111 17.3961 0.863086 17.3519C1.03706 17.3077 1.21893 17.3052 1.39399 17.3449C4.2879 18.0353 7.33339 17.6224 9.94249 16.186L9.95876 16.177L11.9292 15.0853C12.1327 14.9726 12.3655 14.925 12.5965 14.9489C12.8276 14.9727 13.0459 15.0667 13.2225 15.2186L19.6489 20.7378C19.8359 20.8983 19.9664 21.1154 20.0208 21.3567C20.0753 21.598 20.0507 21.8504 19.9508 22.0765C19.933 22.1184 19.3942 23.2969 18.9998 24.1594L18.5951 25.0442C17.2037 28.2042 15.3024 31.1109 12.9681 33.6466C12.8614 33.7584 12.7334 33.8473 12.5917 33.908C12.45 33.9687 12.2976 34 12.1436 34Z" fill="#FFD58C"/>
<path d="M19.4533 23.2315L11.5233 15.253L14.0154 13.9993C14.5448 13.733 15.1442 13.6409 15.7286 13.7364C16.3129 13.8317 16.8527 14.1096 17.2712 14.5308L20.1709 17.4483C20.5895 17.8694 20.8657 18.4125 20.9606 19.0004C21.0554 19.5884 20.964 20.1914 20.6993 20.7241L19.4533 23.2315Z" fill="#FA6D62"/>
<path d="M29.04 2.62256L21.6162 10.0918L24.0908 12.5815L31.5146 5.11226L29.04 2.62256Z" fill="#FA6D62"/>
<path d="M5.03328 29.5444C7.16316 27.9395 9.01054 25.9867 10.4986 23.7671C7.81928 24.8915 4.95012 25.4874 2.04724 25.5222C2.84243 27.0022 3.84841 28.3572 5.03328 29.5444Z" fill="#D9925F"/>
</g>
<defs>
<clipPath id="clip0_208_176">
<rect width="35" height="34" fill="white"/>
</clipPath>
</defs>
</svg>
