<svg width="200" height="64" viewBox="0 0 200 64" fill="none" xmlns="http://www.w3.org/2000/svg">
<path d="M0 5C0 2.23858 2.23858 0 5 0H199.858V59C199.858 61.7614 197.62 64 194.858 64H0V5Z" fill="#242429"/>
<path d="M115.146 13.07C114.686 13.07 114.272 12.99 113.906 12.83C113.546 12.6633 113.262 12.4367 113.056 12.15C112.849 11.8567 112.742 11.52 112.736 11.14H113.706C113.739 11.4667 113.872 11.7433 114.106 11.97C114.346 12.19 114.692 12.3 115.146 12.3C115.579 12.3 115.919 12.1933 116.166 11.98C116.419 11.76 116.546 11.48 116.546 11.14C116.546 10.8733 116.472 10.6567 116.326 10.49C116.179 10.3233 115.996 10.1967 115.776 10.11C115.556 10.0233 115.259 9.93 114.886 9.83C114.426 9.71 114.056 9.59 113.776 9.47C113.502 9.35 113.266 9.16333 113.066 8.91C112.872 8.65 112.776 8.30333 112.776 7.87C112.776 7.49 112.872 7.15333 113.066 6.86C113.259 6.56667 113.529 6.34 113.876 6.18C114.229 6.02 114.632 5.94 115.086 5.94C115.739 5.94 116.272 6.10333 116.686 6.43C117.106 6.75667 117.342 7.19 117.396 7.73H116.396C116.362 7.46333 116.222 7.23 115.976 7.03C115.729 6.82333 115.402 6.72 114.996 6.72C114.616 6.72 114.306 6.82 114.066 7.02C113.826 7.21333 113.706 7.48667 113.706 7.84C113.706 8.09333 113.776 8.3 113.916 8.46C114.062 8.62 114.239 8.74333 114.446 8.83C114.659 8.91 114.956 9.00333 115.336 9.11C115.796 9.23667 116.166 9.36333 116.446 9.49C116.726 9.61 116.966 9.8 117.166 10.06C117.366 10.3133 117.466 10.66 117.466 11.1C117.466 11.44 117.376 11.76 117.196 12.06C117.016 12.36 116.749 12.6033 116.396 12.79C116.042 12.9767 115.626 13.07 115.146 13.07ZM125.395 7.42C125.821 7.42 126.201 7.51 126.535 7.69C126.868 7.86333 127.131 8.12667 127.325 8.48C127.518 8.83333 127.615 9.26333 127.615 9.77V13H126.715V9.9C126.715 9.35333 126.578 8.93667 126.305 8.65C126.038 8.35667 125.675 8.21 125.215 8.21C124.741 8.21 124.365 8.36333 124.085 8.67C123.805 8.97 123.665 9.40667 123.665 9.98V13H122.765V9.9C122.765 9.35333 122.628 8.93667 122.355 8.65C122.088 8.35667 121.725 8.21 121.265 8.21C120.791 8.21 120.415 8.36333 120.135 8.67C119.855 8.97 119.715 9.40667 119.715 9.98V13H118.805V7.52H119.715V8.31C119.895 8.02333 120.135 7.80333 120.435 7.65C120.741 7.49667 121.078 7.42 121.445 7.42C121.905 7.42 122.311 7.52333 122.665 7.73C123.018 7.93667 123.281 8.24 123.455 8.64C123.608 8.25333 123.861 7.95333 124.215 7.74C124.568 7.52667 124.961 7.42 125.395 7.42ZM128.767 10.24C128.767 9.68 128.881 9.19 129.107 8.77C129.334 8.34333 129.644 8.01333 130.037 7.78C130.437 7.54667 130.881 7.43 131.367 7.43C131.847 7.43 132.264 7.53333 132.617 7.74C132.971 7.94667 133.234 8.20667 133.407 8.52V7.52H134.327V13H133.407V11.98C133.227 12.3 132.957 12.5667 132.597 12.78C132.244 12.9867 131.831 13.09 131.357 13.09C130.871 13.09 130.431 12.97 130.037 12.73C129.644 12.49 129.334 12.1533 129.107 11.72C128.881 11.2867 128.767 10.7933 128.767 10.24ZM133.407 10.25C133.407 9.83667 133.324 9.47667 133.157 9.17C132.991 8.86333 132.764 8.63 132.477 8.47C132.197 8.30333 131.887 8.22 131.547 8.22C131.207 8.22 130.897 8.3 130.617 8.46C130.337 8.62 130.114 8.85333 129.947 9.16C129.781 9.46667 129.697 9.82667 129.697 10.24C129.697 10.66 129.781 11.0267 129.947 11.34C130.114 11.6467 130.337 11.8833 130.617 12.05C130.897 12.21 131.207 12.29 131.547 12.29C131.887 12.29 132.197 12.21 132.477 12.05C132.764 11.8833 132.991 11.6467 133.157 11.34C133.324 11.0267 133.407 10.6633 133.407 10.25ZM136.775 8.41C136.935 8.09667 137.162 7.85333 137.455 7.68C137.755 7.50667 138.119 7.42 138.545 7.42V8.36H138.305C137.285 8.36 136.775 8.91333 136.775 10.02V13H135.865V7.52H136.775V8.41ZM140.706 8.27V11.5C140.706 11.7667 140.762 11.9567 140.876 12.07C140.989 12.1767 141.186 12.23 141.466 12.23H142.136V13H141.316C140.809 13 140.429 12.8833 140.176 12.65C139.922 12.4167 139.796 12.0333 139.796 11.5V8.27H139.086V7.52H139.796V6.14H140.706V7.52H142.136V8.27H140.706ZM149.064 13.07C148.418 13.07 147.828 12.92 147.294 12.62C146.761 12.3133 146.338 11.89 146.024 11.35C145.718 10.8033 145.564 10.19 145.564 9.51C145.564 8.83 145.718 8.22 146.024 7.68C146.338 7.13333 146.761 6.71 147.294 6.41C147.828 6.10333 148.418 5.95 149.064 5.95C149.718 5.95 150.311 6.10333 150.844 6.41C151.378 6.71 151.798 7.13 152.104 7.67C152.411 8.21 152.564 8.82333 152.564 9.51C152.564 10.1967 152.411 10.81 152.104 11.35C151.798 11.89 151.378 12.3133 150.844 12.62C150.311 12.92 149.718 13.07 149.064 13.07ZM149.064 12.28C149.551 12.28 149.988 12.1667 150.374 11.94C150.768 11.7133 151.074 11.39 151.294 10.97C151.521 10.55 151.634 10.0633 151.634 9.51C151.634 8.95 151.521 8.46333 151.294 8.05C151.074 7.63 150.771 7.30667 150.384 7.08C149.998 6.85333 149.558 6.74 149.064 6.74C148.571 6.74 148.131 6.85333 147.744 7.08C147.358 7.30667 147.051 7.63 146.824 8.05C146.604 8.46333 146.494 8.95 146.494 9.51C146.494 10.0633 146.604 10.55 146.824 10.97C147.051 11.39 147.358 11.7133 147.744 11.94C148.138 12.1667 148.578 12.28 149.064 12.28ZM154.676 8.41C154.836 8.09667 155.062 7.85333 155.356 7.68C155.656 7.50667 156.019 7.42 156.446 7.42V8.36H156.206C155.186 8.36 154.676 8.91333 154.676 10.02V13H153.766V7.52H154.676V8.41ZM159.756 7.43C160.229 7.43 160.643 7.53333 160.996 7.74C161.356 7.94667 161.623 8.20667 161.796 8.52V7.52H162.716V13.12C162.716 13.62 162.609 14.0633 162.396 14.45C162.183 14.8433 161.876 15.15 161.476 15.37C161.083 15.59 160.623 15.7 160.096 15.7C159.376 15.7 158.776 15.53 158.296 15.19C157.816 14.85 157.533 14.3867 157.446 13.8H158.346C158.446 14.1333 158.653 14.4 158.966 14.6C159.279 14.8067 159.656 14.91 160.096 14.91C160.596 14.91 161.003 14.7533 161.316 14.44C161.636 14.1267 161.796 13.6867 161.796 13.12V11.97C161.616 12.29 161.349 12.5567 160.996 12.77C160.643 12.9833 160.229 13.09 159.756 13.09C159.269 13.09 158.826 12.97 158.426 12.73C158.033 12.49 157.723 12.1533 157.496 11.72C157.269 11.2867 157.156 10.7933 157.156 10.24C157.156 9.68 157.269 9.19 157.496 8.77C157.723 8.34333 158.033 8.01333 158.426 7.78C158.826 7.54667 159.269 7.43 159.756 7.43ZM161.796 10.25C161.796 9.83667 161.713 9.47667 161.546 9.17C161.379 8.86333 161.153 8.63 160.866 8.47C160.586 8.30333 160.276 8.22 159.936 8.22C159.596 8.22 159.286 8.3 159.006 8.46C158.726 8.62 158.503 8.85333 158.336 9.16C158.169 9.46667 158.086 9.82667 158.086 10.24C158.086 10.66 158.169 11.0267 158.336 11.34C158.503 11.6467 158.726 11.8833 159.006 12.05C159.286 12.21 159.596 12.29 159.936 12.29C160.276 12.29 160.586 12.21 160.866 12.05C161.153 11.8833 161.379 11.6467 161.546 11.34C161.713 11.0267 161.796 10.6633 161.796 10.25ZM163.914 10.24C163.914 9.68 164.027 9.19 164.254 8.77C164.481 8.34333 164.791 8.01333 165.184 7.78C165.584 7.54667 166.027 7.43 166.514 7.43C166.994 7.43 167.411 7.53333 167.764 7.74C168.117 7.94667 168.381 8.20667 168.554 8.52V7.52H169.474V13H168.554V11.98C168.374 12.3 168.104 12.5667 167.744 12.78C167.391 12.9867 166.977 13.09 166.504 13.09C166.017 13.09 165.577 12.97 165.184 12.73C164.791 12.49 164.481 12.1533 164.254 11.72C164.027 11.2867 163.914 10.7933 163.914 10.24ZM168.554 10.25C168.554 9.83667 168.471 9.47667 168.304 9.17C168.137 8.86333 167.911 8.63 167.624 8.47C167.344 8.30333 167.034 8.22 166.694 8.22C166.354 8.22 166.044 8.3 165.764 8.46C165.484 8.62 165.261 8.85333 165.094 9.16C164.927 9.46667 164.844 9.82667 164.844 10.24C164.844 10.66 164.927 11.0267 165.094 11.34C165.261 11.6467 165.484 11.8833 165.764 12.05C166.044 12.21 166.354 12.29 166.694 12.29C167.034 12.29 167.344 12.21 167.624 12.05C167.911 11.8833 168.137 11.6467 168.304 11.34C168.471 11.0267 168.554 10.6633 168.554 10.25ZM173.682 7.42C174.348 7.42 174.888 7.62333 175.302 8.03C175.715 8.43 175.922 9.01 175.922 9.77V13H175.022V9.9C175.022 9.35333 174.885 8.93667 174.612 8.65C174.338 8.35667 173.965 8.21 173.492 8.21C173.012 8.21 172.628 8.36 172.342 8.66C172.062 8.96 171.922 9.39667 171.922 9.97V13H171.012V7.52H171.922V8.3C172.102 8.02 172.345 7.80333 172.652 7.65C172.965 7.49667 173.308 7.42 173.682 7.42ZM177.878 6.63C177.705 6.63 177.558 6.57 177.438 6.45C177.318 6.33 177.258 6.18333 177.258 6.01C177.258 5.83667 177.318 5.69 177.438 5.57C177.558 5.45 177.705 5.39 177.878 5.39C178.045 5.39 178.185 5.45 178.298 5.57C178.418 5.69 178.478 5.83667 178.478 6.01C178.478 6.18333 178.418 6.33 178.298 6.45C178.185 6.57 178.045 6.63 177.878 6.63ZM178.318 7.52V13H177.408V7.52H178.318ZM180.549 12.25H183.239V13H179.509V12.25L182.169 8.26H179.529V7.52H183.219V8.26L180.549 12.25ZM189.42 10.05C189.42 10.2233 189.41 10.4067 189.39 10.6H185.01C185.043 11.14 185.227 11.5633 185.56 11.87C185.9 12.17 186.31 12.32 186.79 12.32C187.183 12.32 187.51 12.23 187.77 12.05C188.037 11.8633 188.223 11.6167 188.33 11.31H189.31C189.163 11.8367 188.87 12.2667 188.43 12.6C187.99 12.9267 187.443 13.09 186.79 13.09C186.27 13.09 185.803 12.9733 185.39 12.74C184.983 12.5067 184.663 12.1767 184.43 11.75C184.197 11.3167 184.08 10.8167 184.08 10.25C184.08 9.68333 184.193 9.18667 184.42 8.76C184.647 8.33333 184.963 8.00667 185.37 7.78C185.783 7.54667 186.257 7.43 186.79 7.43C187.31 7.43 187.77 7.54333 188.17 7.77C188.57 7.99667 188.877 8.31 189.09 8.71C189.31 9.10333 189.42 9.55 189.42 10.05ZM188.48 9.86C188.48 9.51333 188.403 9.21667 188.25 8.97C188.097 8.71667 187.887 8.52667 187.62 8.4C187.36 8.26667 187.07 8.2 186.75 8.2C186.29 8.2 185.897 8.34667 185.57 8.64C185.25 8.93333 185.067 9.34 185.02 9.86H188.48ZM191.531 8.41C191.691 8.09667 191.918 7.85333 192.211 7.68C192.511 7.50667 192.874 7.42 193.301 7.42V8.36H193.061C192.041 8.36 191.531 8.91333 191.531 10.02V13H190.621V7.52H191.531V8.41Z" fill="#FBFBFB"/>
<ellipse cx="2.54921" cy="2.5" rx="2.54921" ry="2.5" transform="matrix(1 0 0 -1 9.17725 13)" fill="#FF5259"/>
<ellipse cx="2.54921" cy="2.5" rx="2.54921" ry="2.5" transform="matrix(1 0 0 -1 17.3347 13)" fill="#FFBE2D"/>
<ellipse cx="2.54921" cy="2.5" rx="2.54921" ry="2.5" transform="matrix(1 0 0 -1 25.4922 13)" fill="#27CA40"/>
<rect y="20" width="91.7717" height="44" fill="#303136"/>
<rect x="17.3347" y="37" width="58.122" height="20" fill="#D9D9D9"/>
</svg>
