<svg width="17" height="21" viewBox="0 0 17 21" fill="none" xmlns="http://www.w3.org/2000/svg">
<g clip-path="url(#clip0_208_89)">
<path d="M0 2.625C0 1.1751 1.26836 0 2.83333 0H10.1602C10.9128 0 11.6299 0.276568 12.1612 0.769043L16.1721 4.48301C16.7034 4.9752 17 5.63965 17 6.33691V18.375C17 19.8229 15.7294 21 14.1667 21H2.83333C1.26836 21 0 19.8229 0 18.375V2.625ZM14.875 18.375V6.5625H11.3333C10.5497 6.5625 9.91667 5.97598 9.91667 5.25V1.96875H2.83333C2.44198 1.96875 2.125 2.26242 2.125 2.625V18.375C2.125 18.7359 2.44198 19.0312 2.83333 19.0312H14.1667C14.5562 19.0312 14.875 18.7359 14.875 18.375Z" fill="white"/>
</g>
<defs>
<clipPath id="clip0_208_89">
<rect width="17" height="21" fill="white"/>
</clipPath>
</defs>
</svg>
