<svg width="23" height="21" viewBox="0 0 23 21" fill="none" xmlns="http://www.w3.org/2000/svg">
<path d="M22.8642 11.0865L19.0309 18.9615C18.8153 19.4086 18.3721 19.6875 17.853 19.6875H2.55556C1.14401 19.6875 0 18.512 0 17.0625V3.9375C0 2.48801 1.14401 1.3125 2.55556 1.3125H7.2474C7.92502 1.3125 8.57509 1.58903 9.05465 2.08154L11.0168 3.9375H16.6111C18.0227 3.9375 19.1667 5.11301 19.1667 6.5625V7.875H17.25V6.5625C17.25 6.20058 16.9634 5.90625 16.6111 5.90625H10.2222L7.69861 3.47361C7.57882 3.34934 7.4191 3.28125 7.2474 3.28125H2.55556C2.20337 3.28125 1.91667 3.57574 1.91667 3.9375V15.75L4.75813 9.91348C4.97535 9.46641 5.41858 9.1875 5.90174 9.1875H21.7222C22.6686 9.1875 23.2875 10.2129 22.8642 11.0865Z" fill="white"/>
</svg>
