<svg width="200" height="64" viewBox="0 0 200 64" fill="none" xmlns="http://www.w3.org/2000/svg">
<path d="M0 0H194.858C197.62 0 199.858 2.23858 199.858 5V64H5C2.23858 64 0 61.7614 0 59V0Z" fill="#242429"/>
<path d="M6.03908 16.07C5.57908 16.07 5.16575 15.99 4.79908 15.83C4.43908 15.6633 4.15575 15.4367 3.94908 15.15C3.74242 14.8567 3.63575 14.52 3.62908 14.14H4.59908C4.63242 14.4667 4.76575 14.7433 4.99908 14.97C5.23908 15.19 5.58575 15.3 6.03908 15.3C6.47242 15.3 6.81242 15.1933 7.05908 14.98C7.31242 14.76 7.43908 14.48 7.43908 14.14C7.43908 13.8733 7.36575 13.6567 7.21908 13.49C7.07242 13.3233 6.88908 13.1967 6.66908 13.11C6.44908 13.0233 6.15242 12.93 5.77908 12.83C5.31908 12.71 4.94908 12.59 4.66908 12.47C4.39575 12.35 4.15908 12.1633 3.95908 11.91C3.76575 11.65 3.66908 11.3033 3.66908 10.87C3.66908 10.49 3.76575 10.1533 3.95908 9.86C4.15242 9.56667 4.42242 9.34 4.76908 9.18C5.12242 9.02 5.52575 8.94 5.97908 8.94C6.63242 8.94 7.16575 9.10333 7.57908 9.43C7.99908 9.75667 8.23575 10.19 8.28908 10.73H7.28908C7.25575 10.4633 7.11575 10.23 6.86908 10.03C6.62242 9.82333 6.29575 9.72 5.88908 9.72C5.50908 9.72 5.19908 9.82 4.95908 10.02C4.71908 10.2133 4.59908 10.4867 4.59908 10.84C4.59908 11.0933 4.66908 11.3 4.80908 11.46C4.95575 11.62 5.13242 11.7433 5.33908 11.83C5.55242 11.91 5.84908 12.0033 6.22908 12.11C6.68908 12.2367 7.05908 12.3633 7.33908 12.49C7.61908 12.61 7.85908 12.8 8.05908 13.06C8.25908 13.3133 8.35908 13.66 8.35908 14.1C8.35908 14.44 8.26908 14.76 8.08908 15.06C7.90908 15.36 7.64242 15.6033 7.28908 15.79C6.93575 15.9767 6.51908 16.07 6.03908 16.07ZM16.2882 10.42C16.7149 10.42 17.0949 10.51 17.4282 10.69C17.7616 10.8633 18.0249 11.1267 18.2182 11.48C18.4116 11.8333 18.5082 12.2633 18.5082 12.77V16H17.6082V12.9C17.6082 12.3533 17.4716 11.9367 17.1982 11.65C16.9316 11.3567 16.5682 11.21 16.1082 11.21C15.6349 11.21 15.2582 11.3633 14.9782 11.67C14.6982 11.97 14.5582 12.4067 14.5582 12.98V16H13.6582V12.9C13.6582 12.3533 13.5216 11.9367 13.2482 11.65C12.9816 11.3567 12.6182 11.21 12.1582 11.21C11.6849 11.21 11.3082 11.3633 11.0282 11.67C10.7482 11.97 10.6082 12.4067 10.6082 12.98V16H9.69822V10.52H10.6082V11.31C10.7882 11.0233 11.0282 10.8033 11.3282 10.65C11.6349 10.4967 11.9716 10.42 12.3382 10.42C12.7982 10.42 13.2049 10.5233 13.5582 10.73C13.9116 10.9367 14.1749 11.24 14.3482 11.64C14.5016 11.2533 14.7549 10.9533 15.1082 10.74C15.4616 10.5267 15.8549 10.42 16.2882 10.42ZM19.661 13.24C19.661 12.68 19.7743 12.19 20.001 11.77C20.2276 11.3433 20.5376 11.0133 20.931 10.78C21.331 10.5467 21.7743 10.43 22.261 10.43C22.741 10.43 23.1576 10.5333 23.511 10.74C23.8643 10.9467 24.1276 11.2067 24.301 11.52V10.52H25.221V16H24.301V14.98C24.121 15.3 23.851 15.5667 23.491 15.78C23.1376 15.9867 22.7243 16.09 22.251 16.09C21.7643 16.09 21.3243 15.97 20.931 15.73C20.5376 15.49 20.2276 15.1533 20.001 14.72C19.7743 14.2867 19.661 13.7933 19.661 13.24ZM24.301 13.25C24.301 12.8367 24.2176 12.4767 24.051 12.17C23.8843 11.8633 23.6576 11.63 23.371 11.47C23.091 11.3033 22.781 11.22 22.441 11.22C22.101 11.22 21.791 11.3 21.511 11.46C21.231 11.62 21.0076 11.8533 20.841 12.16C20.6743 12.4667 20.591 12.8267 20.591 13.24C20.591 13.66 20.6743 14.0267 20.841 14.34C21.0076 14.6467 21.231 14.8833 21.511 15.05C21.791 15.21 22.101 15.29 22.441 15.29C22.781 15.29 23.091 15.21 23.371 15.05C23.6576 14.8833 23.8843 14.6467 24.051 14.34C24.2176 14.0267 24.301 13.6633 24.301 13.25ZM27.6688 11.41C27.8288 11.0967 28.0554 10.8533 28.3488 10.68C28.6488 10.5067 29.0121 10.42 29.4388 10.42V11.36H29.1988C28.1788 11.36 27.6688 11.9133 27.6688 13.02V16H26.7588V10.52H27.6688V11.41ZM31.5992 11.27V14.5C31.5992 14.7667 31.6559 14.9567 31.7692 15.07C31.8826 15.1767 32.0792 15.23 32.3592 15.23H33.0292V16H32.2092C31.7026 16 31.3226 15.8833 31.0692 15.65C30.8159 15.4167 30.6892 15.0333 30.6892 14.5V11.27H29.9792V10.52H30.6892V9.14H31.5992V10.52H33.0292V11.27H31.5992ZM39.9578 16.07C39.3112 16.07 38.7212 15.92 38.1878 15.62C37.6545 15.3133 37.2312 14.89 36.9178 14.35C36.6112 13.8033 36.4578 13.19 36.4578 12.51C36.4578 11.83 36.6112 11.22 36.9178 10.68C37.2312 10.1333 37.6545 9.71 38.1878 9.41C38.7212 9.10333 39.3112 8.95 39.9578 8.95C40.6112 8.95 41.2045 9.10333 41.7378 9.41C42.2712 9.71 42.6912 10.13 42.9978 10.67C43.3045 11.21 43.4578 11.8233 43.4578 12.51C43.4578 13.1967 43.3045 13.81 42.9978 14.35C42.6912 14.89 42.2712 15.3133 41.7378 15.62C41.2045 15.92 40.6112 16.07 39.9578 16.07ZM39.9578 15.28C40.4445 15.28 40.8812 15.1667 41.2678 14.94C41.6612 14.7133 41.9678 14.39 42.1878 13.97C42.4145 13.55 42.5278 13.0633 42.5278 12.51C42.5278 11.95 42.4145 11.4633 42.1878 11.05C41.9678 10.63 41.6645 10.3067 41.2778 10.08C40.8912 9.85333 40.4512 9.74 39.9578 9.74C39.4645 9.74 39.0245 9.85333 38.6378 10.08C38.2512 10.3067 37.9445 10.63 37.7178 11.05C37.4978 11.4633 37.3878 11.95 37.3878 12.51C37.3878 13.0633 37.4978 13.55 37.7178 13.97C37.9445 14.39 38.2512 14.7133 38.6378 14.94C39.0312 15.1667 39.4712 15.28 39.9578 15.28ZM45.5692 11.41C45.7292 11.0967 45.9558 10.8533 46.2492 10.68C46.5492 10.5067 46.9125 10.42 47.3392 10.42V11.36H47.0992C46.0792 11.36 45.5692 11.9133 45.5692 13.02V16H44.6592V10.52H45.5692V11.41ZM50.6496 10.43C51.123 10.43 51.5363 10.5333 51.8896 10.74C52.2496 10.9467 52.5163 11.2067 52.6896 11.52V10.52H53.6096V16.12C53.6096 16.62 53.503 17.0633 53.2896 17.45C53.0763 17.8433 52.7696 18.15 52.3696 18.37C51.9763 18.59 51.5163 18.7 50.9896 18.7C50.2696 18.7 49.6696 18.53 49.1896 18.19C48.7096 17.85 48.4263 17.3867 48.3396 16.8H49.2396C49.3396 17.1333 49.5463 17.4 49.8596 17.6C50.173 17.8067 50.5496 17.91 50.9896 17.91C51.4896 17.91 51.8963 17.7533 52.2096 17.44C52.5296 17.1267 52.6896 16.6867 52.6896 16.12V14.97C52.5096 15.29 52.243 15.5567 51.8896 15.77C51.5363 15.9833 51.123 16.09 50.6496 16.09C50.163 16.09 49.7196 15.97 49.3196 15.73C48.9263 15.49 48.6163 15.1533 48.3896 14.72C48.163 14.2867 48.0496 13.7933 48.0496 13.24C48.0496 12.68 48.163 12.19 48.3896 11.77C48.6163 11.3433 48.9263 11.0133 49.3196 10.78C49.7196 10.5467 50.163 10.43 50.6496 10.43ZM52.6896 13.25C52.6896 12.8367 52.6063 12.4767 52.4396 12.17C52.273 11.8633 52.0463 11.63 51.7596 11.47C51.4796 11.3033 51.1696 11.22 50.8296 11.22C50.4896 11.22 50.1796 11.3 49.8996 11.46C49.6196 11.62 49.3963 11.8533 49.2296 12.16C49.063 12.4667 48.9796 12.8267 48.9796 13.24C48.9796 13.66 49.063 14.0267 49.2296 14.34C49.3963 14.6467 49.6196 14.8833 49.8996 15.05C50.1796 15.21 50.4896 15.29 50.8296 15.29C51.1696 15.29 51.4796 15.21 51.7596 15.05C52.0463 14.8833 52.273 14.6467 52.4396 14.34C52.6063 14.0267 52.6896 13.6633 52.6896 13.25ZM54.8074 13.24C54.8074 12.68 54.9208 12.19 55.1474 11.77C55.3741 11.3433 55.6841 11.0133 56.0774 10.78C56.4774 10.5467 56.9208 10.43 57.4074 10.43C57.8874 10.43 58.3041 10.5333 58.6574 10.74C59.0108 10.9467 59.2741 11.2067 59.4474 11.52V10.52H60.3674V16H59.4474V14.98C59.2674 15.3 58.9974 15.5667 58.6374 15.78C58.2841 15.9867 57.8708 16.09 57.3974 16.09C56.9108 16.09 56.4708 15.97 56.0774 15.73C55.6841 15.49 55.3741 15.1533 55.1474 14.72C54.9208 14.2867 54.8074 13.7933 54.8074 13.24ZM59.4474 13.25C59.4474 12.8367 59.3641 12.4767 59.1974 12.17C59.0308 11.8633 58.8041 11.63 58.5174 11.47C58.2374 11.3033 57.9274 11.22 57.5874 11.22C57.2474 11.22 56.9374 11.3 56.6574 11.46C56.3774 11.62 56.1541 11.8533 55.9874 12.16C55.8208 12.4667 55.7374 12.8267 55.7374 13.24C55.7374 13.66 55.8208 14.0267 55.9874 14.34C56.1541 14.6467 56.3774 14.8833 56.6574 15.05C56.9374 15.21 57.2474 15.29 57.5874 15.29C57.9274 15.29 58.2374 15.21 58.5174 15.05C58.8041 14.8833 59.0308 14.6467 59.1974 14.34C59.3641 14.0267 59.4474 13.6633 59.4474 13.25ZM64.5753 10.42C65.2419 10.42 65.7819 10.6233 66.1953 11.03C66.6086 11.43 66.8153 12.01 66.8153 12.77V16H65.9153V12.9C65.9153 12.3533 65.7786 11.9367 65.5053 11.65C65.2319 11.3567 64.8586 11.21 64.3853 11.21C63.9053 11.21 63.5219 11.36 63.2353 11.66C62.9553 11.96 62.8153 12.3967 62.8153 12.97V16H61.9053V10.52H62.8153V11.3C62.9953 11.02 63.2386 10.8033 63.5453 10.65C63.8586 10.4967 64.2019 10.42 64.5753 10.42ZM68.7717 9.63C68.5984 9.63 68.4517 9.57 68.3317 9.45C68.2117 9.33 68.1517 9.18333 68.1517 9.01C68.1517 8.83667 68.2117 8.69 68.3317 8.57C68.4517 8.45 68.5984 8.39 68.7717 8.39C68.9384 8.39 69.0784 8.45 69.1917 8.57C69.3117 8.69 69.3717 8.83667 69.3717 9.01C69.3717 9.18333 69.3117 9.33 69.1917 9.45C69.0784 9.57 68.9384 9.63 68.7717 9.63ZM69.2117 10.52V16H68.3017V10.52H69.2117ZM71.4427 15.25H74.1327V16H70.4027V15.25L73.0627 11.26H70.4227V10.52H74.1127V11.26L71.4427 15.25ZM80.3135 13.05C80.3135 13.2233 80.3035 13.4067 80.2835 13.6H75.9035C75.9368 14.14 76.1201 14.5633 76.4535 14.87C76.7935 15.17 77.2035 15.32 77.6835 15.32C78.0768 15.32 78.4035 15.23 78.6635 15.05C78.9301 14.8633 79.1168 14.6167 79.2235 14.31H80.2035C80.0568 14.8367 79.7635 15.2667 79.3235 15.6C78.8835 15.9267 78.3368 16.09 77.6835 16.09C77.1635 16.09 76.6968 15.9733 76.2835 15.74C75.8768 15.5067 75.5568 15.1767 75.3235 14.75C75.0901 14.3167 74.9735 13.8167 74.9735 13.25C74.9735 12.6833 75.0868 12.1867 75.3135 11.76C75.5401 11.3333 75.8568 11.0067 76.2635 10.78C76.6768 10.5467 77.1501 10.43 77.6835 10.43C78.2035 10.43 78.6635 10.5433 79.0635 10.77C79.4635 10.9967 79.7701 11.31 79.9835 11.71C80.2035 12.1033 80.3135 12.55 80.3135 13.05ZM79.3735 12.86C79.3735 12.5133 79.2968 12.2167 79.1435 11.97C78.9901 11.7167 78.7801 11.5267 78.5135 11.4C78.2535 11.2667 77.9635 11.2 77.6435 11.2C77.1835 11.2 76.7901 11.3467 76.4635 11.64C76.1435 11.9333 75.9601 12.34 75.9135 12.86H79.3735ZM82.4246 11.41C82.5846 11.0967 82.8113 10.8533 83.1046 10.68C83.4046 10.5067 83.768 10.42 84.1946 10.42V11.36H83.9546C82.9346 11.36 82.4246 11.9133 82.4246 13.02V16H81.5146V10.52H82.4246V11.41Z" fill="#FBFBFB"/>
<rect width="11.1088" height="1.00989" rx="0.504945" transform="matrix(0.713965 -0.700182 0.713965 0.700182 184.089 14.3137)" fill="#B3B3B3"/>
<rect width="1.00989" height="11.1088" rx="0.504945" transform="matrix(0.713965 -0.700182 0.713965 0.700182 184.089 7.24243)" fill="#B3B3B3"/>
<rect x="168.748" y="7.5" width="7.15748" height="7" rx="0.5" stroke="#B3B3B3"/>
<rect x="151.933" y="10.0001" width="8.15748" height="1" rx="0.5" fill="#B3B3B3"/>
<rect x="107.902" y="20" width="91.7717" height="44" fill="#303136"/>
<rect x="125.236" y="37" width="58.122" height="20" fill="#D9D9D9"/>
</svg>
