<svg width="18" height="19" viewBox="0 0 18 19" fill="none" xmlns="http://www.w3.org/2000/svg">
<path d="M13.0652 0.391296C12.9932 0.391296 6.09627 0.391296 6.09627 0.391296C4.8674 0.391296 3.7733 1.51853 3.7733 2.71429L3.10196 2.72997C1.87368 2.72997 0.869568 3.8415 0.869568 5.03726V16.6522C0.869568 17.8479 1.9637 18.9751 3.19256 18.9751H11.9037C13.1326 18.9751 14.2267 17.8479 14.2267 16.6522H14.8074C16.0363 16.6522 17.1304 15.525 17.1304 14.3292V5.0512L13.0652 0.391296ZM11.9037 17.8137H3.19256C2.58278 17.8137 2.03108 17.244 2.03108 16.6522V5.03726C2.03108 4.44549 2.52762 3.89493 3.1374 3.89493L3.7733 3.87577V14.3292C3.7733 15.525 4.8674 16.6522 6.09627 16.6522H13.0652C13.0652 17.244 12.5135 17.8137 11.9037 17.8137ZM15.969 14.3292C15.969 14.9209 15.4172 15.4907 14.8074 15.4907H6.09627C5.48649 15.4907 4.93479 14.921 4.93479 14.3292V2.71429C4.93479 2.12252 5.48649 1.55281 6.09627 1.55281H11.9037C11.8944 2.89026 11.9037 3.89031 11.9037 3.89031C11.9037 5.09709 12.9897 6.19877 14.2267 6.19877C14.2267 6.19877 14.8435 6.19877 15.969 6.19877V14.3292ZM14.2267 5.03726C13.6082 5.03726 13.0652 3.91353 13.0652 3.31071C13.0652 3.31071 13.0652 2.69976 13.0652 1.57079V1.56962L15.969 5.03726H14.2267ZM13.0652 8.5322H7.83852C7.51795 8.5322 7.25778 8.79179 7.25778 9.11236C7.25778 9.43292 7.51795 9.69251 7.83852 9.69251H13.0652C13.3858 9.69251 13.646 9.4329 13.646 9.11236C13.646 8.79179 13.3858 8.5322 13.0652 8.5322ZM13.0652 11.433H7.83852C7.51795 11.433 7.25778 11.6926 7.25778 12.0131C7.25778 12.3337 7.51795 12.5933 7.83852 12.5933H13.0652C13.3858 12.5933 13.646 12.3337 13.646 12.0131C13.646 11.6926 13.3858 11.433 13.0652 11.433Z" fill="black"/>
</svg>
