<svg width="18" height="22" viewBox="0 0 18 22" fill="none" xmlns="http://www.w3.org/2000/svg">
<path d="M12.2727 21.2727H5.72728C4.6423 21.2727 3.60176 20.8417 2.83457 20.0745C2.06737 19.3074 1.63637 18.2668 1.63637 17.1818V7.36365C1.63637 7.14666 1.72257 6.93855 1.87601 6.78511C2.02945 6.63167 2.23755 6.54547 2.45455 6.54547C2.67154 6.54547 2.87965 6.63167 3.03309 6.78511C3.18653 6.93855 3.27273 7.14666 3.27273 7.36365V17.1818C3.27273 17.8328 3.53133 18.4571 3.99165 18.9175C4.45197 19.3778 5.07629 19.6364 5.72728 19.6364H12.2727C12.9237 19.6364 13.548 19.3778 14.0084 18.9175C14.4687 18.4571 14.7273 17.8328 14.7273 17.1818V7.36365C14.7273 7.14666 14.8135 6.93855 14.9669 6.78511C15.1204 6.63167 15.3285 6.54547 15.5455 6.54547C15.7625 6.54547 15.9706 6.63167 16.124 6.78511C16.2774 6.93855 16.3636 7.14666 16.3636 7.36365V17.1818C16.3636 18.2668 15.9326 19.3074 15.1654 20.0745C14.3982 20.8417 13.3577 21.2727 12.2727 21.2727Z" fill="black"/>
<path d="M17.1818 4.90907H0.818182C0.601187 4.90907 0.393079 4.82287 0.23964 4.66943C0.0862012 4.51599 0 4.30788 0 4.09089C0 3.87389 0.0862012 3.66578 0.23964 3.51235C0.393079 3.35891 0.601187 3.27271 0.818182 3.27271H17.1818C17.3988 3.27271 17.6069 3.35891 17.7604 3.51235C17.9138 3.66578 18 3.87389 18 4.09089C18 4.30788 17.9138 4.51599 17.7604 4.66943C17.6069 4.82287 17.3988 4.90907 17.1818 4.90907Z" fill="black"/>
<path d="M12.2727 4.90909H5.72727C5.51027 4.90909 5.30217 4.82289 5.14873 4.66945C4.99529 4.51601 4.90909 4.3079 4.90909 4.09091V2.45455C4.90909 1.80356 5.16769 1.17924 5.62801 0.71892C6.08832 0.258603 6.71265 0 7.36363 0H10.6364C11.2873 0 11.9117 0.258603 12.372 0.71892C12.8323 1.17924 13.0909 1.80356 13.0909 2.45455V4.09091C13.0909 4.3079 13.0047 4.51601 12.8513 4.66945C12.6978 4.82289 12.4897 4.90909 12.2727 4.90909ZM6.54545 3.27273H11.4545V2.45455C11.4545 2.23755 11.3683 2.02944 11.2149 1.876C11.0615 1.72256 10.8534 1.63636 10.6364 1.63636H7.36363C7.14664 1.63636 6.93853 1.72256 6.78509 1.876C6.63165 2.02944 6.54545 2.23755 6.54545 2.45455V3.27273Z" fill="black"/>
<path d="M7.36364 16.3636C7.14664 16.3636 6.93853 16.2774 6.7851 16.124C6.63166 15.9706 6.54546 15.7624 6.54546 15.5455V9.81818C6.54546 9.60119 6.63166 9.39308 6.7851 9.23964C6.93853 9.0862 7.14664 9 7.36364 9C7.58063 9 7.78874 9.0862 7.94218 9.23964C8.09562 9.39308 8.18182 9.60119 8.18182 9.81818V15.5455C8.18182 15.7624 8.09562 15.9706 7.94218 16.124C7.78874 16.2774 7.58063 16.3636 7.36364 16.3636Z" fill="black"/>
<path d="M10.6364 16.3636C10.4194 16.3636 10.2113 16.2774 10.0578 16.124C9.90438 15.9706 9.81818 15.7624 9.81818 15.5455V9.81818C9.81818 9.60119 9.90438 9.39308 10.0578 9.23964C10.2113 9.0862 10.4194 9 10.6364 9C10.8534 9 11.0615 9.0862 11.2149 9.23964C11.3683 9.39308 11.4545 9.60119 11.4545 9.81818V15.5455C11.4545 15.7624 11.3683 15.9706 11.2149 16.124C11.0615 16.2774 10.8534 16.3636 10.6364 16.3636Z" fill="black"/>
</svg>
