<svg width="23" height="18" viewBox="0 0 23 18" fill="none" xmlns="http://www.w3.org/2000/svg">
<path d="M13 9.5C13 11.3182 10.5 13.3636 10.5 13.3636C10.5 13.3636 8 11.3182 8 9.5C8 8.11364 9.11364 7 10.5 7C11.8864 7 13 8.11364 13 9.5Z" fill="#8F6FEF" stroke="#9A78FF" stroke-opacity="0.6" stroke-width="2" stroke-miterlimit="10" stroke-linecap="round" stroke-linejoin="round"/>
<path d="M10.5 11.0909C11.3787 11.0909 12.0909 10.3786 12.0909 9.49999C12.0909 8.62135 11.3787 7.90908 10.5 7.90908C9.62139 7.90908 8.90912 8.62135 8.90912 9.49999C8.90912 10.3786 9.62139 11.0909 10.5 11.0909Z" fill="#D8D8D8"/>
<path d="M10.5 10.1818C10.8766 10.1818 11.1818 9.87656 11.1818 9.5C11.1818 9.12344 10.8766 8.81818 10.5 8.81818C10.1234 8.81818 9.81818 9.12344 9.81818 9.5C9.81818 9.87656 10.1234 10.1818 10.5 10.1818Z" fill="#D9D9D9"/>
<path d="M20.25 15.75H2.25V4.5H20.25V15.75ZM20.25 2.25H11.25L9 0H2.25C1.00125 0 0 1.00125 0 2.25V15.75C0 16.3467 0.237053 16.919 0.65901 17.341C1.08097 17.7629 1.65326 18 2.25 18H20.25C20.8467 18 21.419 17.7629 21.841 17.341C22.2629 16.919 22.5 16.3467 22.5 15.75V4.5C22.5 3.25125 21.4875 2.25 20.25 2.25Z" fill="#8F6FEF"/>
</svg>
