<svg width="200" height="196" viewBox="0 0 200 196" fill="none" xmlns="http://www.w3.org/2000/svg">
<path d="M125 130.667H75C72.7898 130.667 70.6702 131.527 69.1074 133.059C67.5446 134.59 66.6666 136.667 66.6666 138.833C66.6666 140.999 67.5446 143.077 69.1074 144.608C70.6702 146.14 72.7898 147 75 147H125C127.21 147 129.33 146.14 130.893 144.608C132.455 143.077 133.333 140.999 133.333 138.833C133.333 136.667 132.455 134.59 130.893 133.059C129.33 131.527 127.21 130.667 125 130.667Z" fill="#FFAD4C"/>
<path d="M75 114.333H100C102.21 114.333 104.33 113.473 105.893 111.941C107.455 110.41 108.333 108.333 108.333 106.167C108.333 104.001 107.455 101.924 105.893 100.392C104.33 98.8604 102.21 98 100 98H75C72.7898 98 70.6702 98.8604 69.1074 100.392C67.5446 101.924 66.6666 104.001 66.6666 106.167C66.6666 108.333 67.5446 110.41 69.1074 111.941C70.6702 113.473 72.7898 114.333 75 114.333Z" fill="#FFAD4C"/>
<path d="M164.5 68.0283L119.167 19.0283C118.388 18.1823 117.436 17.5055 116.374 17.0413C115.312 16.5772 114.163 16.336 113 16.3333H54.6667C51.8979 16.301 49.1498 16.8034 46.5792 17.8119C44.0086 18.8205 41.6659 20.3154 39.6849 22.2113C37.7039 24.1072 36.1233 26.367 35.0335 28.8615C33.9437 31.3561 33.366 34.0366 33.3334 36.75V159.25C33.366 161.963 33.9437 164.644 35.0335 167.138C36.1233 169.633 37.7039 171.893 39.6849 173.789C41.6659 175.685 44.0086 177.179 46.5792 178.188C49.1498 179.197 51.8979 179.699 54.6667 179.667H145.333C148.102 179.699 150.85 179.197 153.421 178.188C155.991 177.179 158.334 175.685 160.315 173.789C162.296 171.893 163.877 169.633 164.967 167.138C166.056 164.644 166.634 161.963 166.667 159.25V73.5C166.661 71.476 165.889 69.5261 164.5 68.0283ZM116.667 40.8333L139.5 65.3333H122.833C121.961 65.2817 121.107 65.0602 120.323 64.6819C119.538 64.3035 118.839 63.7758 118.265 63.1297C117.691 62.4835 117.254 61.7317 116.979 60.9182C116.705 60.1047 116.599 59.2458 116.667 58.3916V40.8333ZM145.333 163.333H54.6667C54.0865 163.366 53.5053 163.287 52.9565 163.1C52.4077 162.912 51.902 162.62 51.4685 162.241C51.0349 161.862 50.6821 161.402 50.4301 160.889C50.1781 160.376 50.032 159.819 50 159.25V36.75C50.032 36.1813 50.1781 35.6243 50.4301 35.1111C50.6821 34.5978 51.0349 34.1383 51.4685 33.759C51.902 33.3797 52.4077 33.0879 52.9565 32.9005C53.5053 32.713 54.0865 32.6336 54.6667 32.6667H100V58.3916C99.8655 64.4074 102.165 70.2311 106.396 74.5916C110.627 78.9522 116.446 81.4956 122.583 81.6666H150V159.25C149.968 159.819 149.822 160.376 149.57 160.889C149.318 161.402 148.965 161.862 148.532 162.241C148.098 162.62 147.592 162.912 147.044 163.1C146.495 163.287 145.914 163.366 145.333 163.333Z" fill="#FFAD4C"/>
</svg>
