<svg width="26" height="20" viewBox="0 0 26 20" fill="none" xmlns="http://www.w3.org/2000/svg">
<path d="M18 14H2V4H18V14ZM18 2H10L8 0H2C0.89 0 0 0.89 0 2V14C0 14.5304 0.210714 15.0391 0.585786 15.4142C0.960859 15.7893 1.46957 16 2 16H18C18.5304 16 19.0391 15.7893 19.4142 15.4142C19.7893 15.0391 20 14.5304 20 14V4C20 2.89 19.1 2 18 2Z" fill="#9A78FF"/>
<ellipse cx="18" cy="14" rx="8" ry="6" fill="#262534"/>
<path d="M18.5 10C15.6649 10 13.2076 11.6255 12 14C13.2076 16.3745 15.6649 18 18.5 18C21.335 18 23.7924 16.3745 25 14C23.7924 11.6255 21.335 10 18.5 10ZM21.7049 12.1213C22.4687 12.601 23.1159 13.2435 23.6021 14C23.116 14.7565 22.4687 15.399 21.7049 15.8787C20.7452 16.4814 19.637 16.8 18.5 16.8C17.363 16.8 16.2548 16.4814 15.2951 15.8787C14.5313 15.399 13.8841 14.7565 13.398 14C13.8841 13.2435 14.5313 12.601 15.2951 12.1213C15.3448 12.0901 15.3951 12.0598 15.4456 12.03C15.3192 12.3716 15.25 12.7403 15.25 13.125C15.25 14.8923 16.7051 16.325 18.5 16.325C20.2949 16.325 21.75 14.8923 21.75 13.125C21.75 12.7403 21.6808 12.3717 21.5544 12.03C21.6049 12.0598 21.6552 12.0901 21.7049 12.1213ZM18.5 12.725C18.5 13.3878 17.9544 13.925 17.2812 13.925C16.6081 13.925 16.0625 13.3878 16.0625 12.725C16.0625 12.0623 16.6081 11.525 17.2812 11.525C17.9544 11.525 18.5 12.0623 18.5 12.725Z" fill="#B59DFF"/>
</svg>
