<svg width="41" height="37" viewBox="0 0 41 37" fill="none" xmlns="http://www.w3.org/2000/svg">
<path d="M23.3957 4.97101C23.3957 5.58991 22.8934 6.09222 22.2745 6.09222H8.89525C8.27634 6.09222 7.77404 5.58991 7.77404 4.97101C7.77404 4.3521 8.27634 3.84979 8.89525 3.84979H22.2745C22.8934 3.84979 23.3957 4.3521 23.3957 4.97101ZM22.2745 8.40909H8.89525C8.27634 8.40909 7.77404 8.91139 7.77404 9.5303C7.77404 10.1492 8.27634 10.6515 8.89525 10.6515H22.2745C22.8934 10.6515 23.3957 10.1492 23.3957 9.5303C23.3957 8.91139 22.8934 8.40909 22.2745 8.40909ZM40.3089 15.0619L35.8241 35.2437C35.5962 36.2699 34.6849 37 33.6364 37H29.1515H6.72727H2.24242C1.00371 37 0 35.9963 0 34.7576V7.84848C0 6.60977 1.00371 5.60606 2.24242 5.60606H3.36364V1.12121C3.36364 0.502303 3.86504 0 4.48485 0H26.9091C27.5271 0 28.0303 0.502303 28.0303 1.12121V5.60606H29.1515C30.3902 5.60606 31.3939 6.60977 31.3939 7.84848V10.0909H33.6364C34.8751 10.0909 35.8788 11.0946 35.8788 12.3333H38.1212C38.8011 12.3333 39.446 12.6419 39.8694 13.1729C40.2955 13.703 40.4578 14.3982 40.3089 15.0619ZM3.36364 7.84848H2.24242V34.7576H3.36364V7.84848ZM28.0303 10.0909H29.1515V7.84848H28.0303V10.0909ZM11.2121 12.3333H24.6667C24.6667 11.0946 25.6704 10.0909 26.9091 10.0909V1.12121H4.48485V34.7576H4.48664C4.48664 34.5943 9.02262 14.0896 9.02262 14.0896C9.25045 13.0635 10.1618 12.3333 11.2121 12.3333ZM30.8961 30.9194L27.3576 28.0303C27.049 27.7792 26.666 27.6912 26.3009 27.7469L25.8892 27.4105C26.7423 26.1207 27.1244 24.5886 26.9665 23.0288C26.7862 21.242 25.9206 19.6302 24.5294 18.4937C23.3293 17.516 21.8197 16.9769 20.2751 16.9769C18.2453 16.9769 16.3455 17.8775 15.061 19.4499C12.7154 22.322 13.1442 26.57 16.0172 28.9156C17.2146 29.8951 18.7251 30.4324 20.2688 30.4324C21.9219 30.4324 23.4818 29.8269 24.699 28.7577L25.1654 29.1363C25.1842 29.504 25.3448 29.8646 25.6542 30.1158L29.1901 33.0049C29.4403 33.2103 29.7417 33.3081 30.0404 33.3081C30.4315 33.3081 30.8163 33.1394 31.0827 32.8138C31.559 32.2362 31.4711 31.3895 30.8961 30.9194ZM23.1131 20.2312C22.278 19.5512 21.2743 19.2203 20.2778 19.2203C18.9781 19.2203 17.6882 19.7827 16.802 20.8689C15.235 22.7884 15.5203 25.613 17.4389 27.1791C18.2722 27.859 19.2759 28.19 20.2724 28.19C21.5712 28.19 22.862 27.6276 23.7482 26.5413C25.317 24.6227 25.029 21.7982 23.1131 20.2312Z" fill="#809CFF"/>
</svg>
