<svg width="150" height="117" viewBox="0 0 150 117" fill="none" xmlns="http://www.w3.org/2000/svg">
<path d="M132.338 95.7273C132.15 95.5855 112.909 67.4665 107.137 67.4665C101.475 67.4665 90.6713 81.12 90.6713 81.12C82.2713 72.93 63.6712 49.6718 58.1925 49.6718C52.5337 49.6718 30.2588 78.4609 17.7338 95.7273H132.338ZM98.6663 35.4545C98.6663 42.6873 104.85 48.5373 112.5 48.5373C120.15 48.5373 126.334 42.6873 126.334 35.4545C126.334 28.2218 120.15 22.3718 112.5 22.3718C104.85 22.3718 98.6663 28.2218 98.6663 35.4545ZM0 10.6364V106.364C0 115.298 1.9125 117 11.25 117H138.75C148.016 117 150 115.369 150 106.364V10.6364C150 1.91455 148.234 0 138.75 0H11.25C1.95 0 0 1.52455 0 10.6364ZM11.25 10.6364H138.75V106.364H11.25V10.6364Z" fill="#FF32F7"/>
</svg>
