<svg width="18" height="20" viewBox="0 0 18 20" fill="none" xmlns="http://www.w3.org/2000/svg">
<path d="M9.21053 0H1.84211C0.828947 0 0 0.828947 0 1.84211V16.5789C0 16.9566 0.110526 17.3158 0.313158 17.6105C0.377632 17.7118 0.460526 17.8039 0.543421 17.8776C0.875 18.2184 1.33553 18.4211 1.84211 18.4211H8.77763C8.28947 17.8868 7.93026 17.2697 7.69079 16.5789H1.84211V1.84211H8.28947V6.44737H12.8947V9.21053C13.5395 9.21053 14.1566 9.32105 14.7368 9.52368V5.52632L9.21053 0ZM12.8947 19.3421L17.5 15.1974L14.7368 12.7105L12.8947 11.0526V13.8158H9.21053V16.5789H12.8947V19.3421Z" fill="black"/>
</svg>
