<svg width="144" height="144" viewBox="0 0 144 144" fill="none" xmlns="http://www.w3.org/2000/svg">
<path d="M144 9.00009C144 6.30378 142.791 3.74949 140.706 2.04003C138.621 0.33057 135.879 -0.353971 133.235 0.174869L43.2349 18.1749C39.0281 19.0162 36 22.71 36 27.0001V109.024C33.185 108.361 30.1558 108 27 108C12.0884 108 0 116.059 0 126C0 135.941 12.0884 144 27 144C41.9117 144 53.9999 135.941 54 126V52.3783L126 37.9783V91.0242C123.185 90.3609 120.155 90 117 90C102.088 90 90 98.0586 90 108C90 117.941 102.088 126 117 126C131.912 126 144 117.941 144 108V9.00009Z" fill="#F14668"/>
</svg>
