<svg xmlns="http://www.w3.org/2000/svg" viewBox="0 0 167 102" width="167" height="102">
	<style>
		tspan { white-space:pre }
		.shp0 { fill: #f3f7ff } 
		.shp1 { fill: #ffffff;stroke: #75a4fe;stroke-linecap:round;stroke-width: 2.5 } 
		.shp2 { fill: #e8f0fe } 
		.shp3 { fill: #ffffff;stroke: #75a4fe;stroke-width: 2.5 } 
		.shp4 { fill: none;stroke: #75a4fe;stroke-linecap:round;stroke-linejoin:round;stroke-width: 2.5 } 
		.shp5 { fill: none;stroke: #a4c3fe;stroke-linecap:round;stroke-linejoin:round;stroke-width: 2.5 } 
	</style>
	<g id="Page 1">
		<g id="NoDocuments">
			<path id="Background" class="shp0" d="M129 85L46 85C42.13 85 39 81.87 39 78C39 74.13 42.13 71 46 71L7 71C3.13 71 0 67.87 0 64C0 60.13 3.13 57 7 57L47 57C50.87 57 54 53.87 54 50C54 46.13 50.87 43 47 43L22 43C18.13 43 15 39.87 15 36C15 32.13 18.13 29 22 29L62 29C58.13 29 55 25.87 55 22C55 18.13 58.13 15 62 15L160 15C163.87 15 167 18.13 167 22C167 25.87 163.87 29 160 29L120 29C123.87 29 127 32.13 127 36C127 39.87 123.87 43 120 43L142 43C145.87 43 149 46.13 149 50C149 53.87 145.87 57 142 57L131.83 57C126.95 57 123 60.13 123 64C123 67.87 129 71 129 71C132.87 71 136 74.13 136 78C136 81.87 132.87 85 129 85ZM160 57C156.13 57 153 53.87 153 50C153 46.13 156.13 43 160 43C163.87 43 167 46.13 167 50C167 53.87 163.87 57 160 57Z" />
			<path id="Shape" fill-rule="evenodd" class="shp1" d="M106.67 14L115.97 81.84L116.81 88.65C117.08 90.84 115.52 92.84 113.33 93.11L54.77 100.3C52.57 100.57 50.58 99.01 50.31 96.81L41.29 23.39C41.16 22.29 41.94 21.29 43.03 21.16C43.04 21.16 43.05 21.16 43.06 21.16L47.91 20.61M51.84 20.17L56.43 19.66" />
			<path id="Rectangle" class="shp2" d="M104.14 18.27L112.56 79.75L113.32 85.92C113.56 87.91 112.17 89.71 110.2 89.96L57.76 96.39C55.8 96.64 54.01 95.22 53.76 93.23L45.37 24.87L53.84 23.83" />
			<path id="Rectangle" class="shp3" d="M63.67 0L106.88 0C109.1 0 112.15 1.26 113.71 2.83L123.84 12.95C125.41 14.51 126.67 17.57 126.67 19.78L126.67 80C126.67 82.21 124.88 84 122.67 84L63.67 84C61.46 84 59.67 82.21 59.67 80L59.67 4C59.67 1.79 61.46 0 63.67 0Z" />
			<path id="Shape" class="shp4" d="M109.67 2.4L109.67 14C109.67 15.66 111.01 17 112.67 17L120.61 17" />
			<path id="lines" class="shp5" d="M71.67 17L97.67 17M71.67 29L114.67 29M71.67 42L114.67 42M71.67 55L114.67 55M71.67 68L97.67 68" />
		</g>
	</g>
</svg>