<svg width="18" height="16" viewBox="0 0 18 16" fill="none" xmlns="http://www.w3.org/2000/svg">
<path d="M6.99669 0C3.13288 0 0 2.68502 0 5.99651C0 9.30799 3.13288 11.993 6.99672 11.993C8.48252 11.993 9.86043 11.5958 10.9931 10.9193L10.9939 10.9186L16.183 15.3659C16.2793 15.4484 16.4324 15.4505 16.5312 15.3659L17.9297 14.1673C18.026 14.0847 18.0211 13.9479 17.9289 13.8689L12.7406 9.42228C13.53 8.45084 13.9934 7.26988 13.9934 5.99651C13.9934 2.68502 10.8605 0 6.99669 0ZM6.99669 10.5821C4.0416 10.5821 1.64626 8.52915 1.64626 5.99651C1.64626 3.46386 4.04163 1.41095 6.99669 1.41095C9.95175 1.41095 12.3471 3.46386 12.3471 5.99651C12.3471 8.52915 9.95178 10.5821 6.99669 10.5821Z" fill="white"/>
</svg>
