<svg width="26" height="29" viewBox="0 0 26 29" fill="none" xmlns="http://www.w3.org/2000/svg">
<path d="M0 0V1V25V26H1H11.7812C13.2495 27.8284 15.4817 29 18 29C22.4064 29 26 25.4064 26 21C26 17.2886 23.4371 14.1778 20 13.2812V7V6.59375L19.7188 6.28125L13.7188 0.28125L13.4062 0H13H1H0ZM2 2H12V7V8H13H18V13C13.5936 13 10 16.5936 10 21C10 22.0658 10.2126 23.0686 10.5938 24H2V2ZM14 3.4375L16.5625 6H14V3.4375ZM18 15C21.3256 15 24 17.6744 24 21C24 24.3256 21.3256 27 18 27C14.6744 27 12 24.3256 12 21C12 17.6744 14.6744 15 18 15ZM15.7188 17.2812L14.2812 18.7188L16.5625 21L14.2812 23.2812L15.7188 24.7188L18 22.4375L20.2812 24.7188L21.7188 23.2812L19.4375 21L21.7188 18.7188L20.2812 17.2812L18 19.5625L15.7188 17.2812Z" fill="black"/>
</svg>
