<svg width="214" height="186" viewBox="0 0 214 186" fill="none" xmlns="http://www.w3.org/2000/svg">
<path d="M186.564 55.9129C183.882 54.8603 180.902 54.515 177.996 54.9198C175.09 55.3247 172.385 56.4618 170.218 58.19L151.204 73.4966L151.22 62.38C151.228 56.28 148.444 50.4259 143.48 46.1056C138.516 41.7853 131.779 39.3526 124.75 39.3428L45.245 39.2312C38.2163 39.2213 31.4721 41.635 26.496 45.9414C21.5199 50.2478 18.7196 56.094 18.711 62.1939L18.6249 123.527C18.6163 129.627 21.4003 135.481 26.3642 139.802C31.3282 144.122 38.0656 146.555 45.0943 146.564L124.599 146.676C131.628 146.686 138.372 144.272 143.348 139.966C148.325 135.659 151.125 129.813 151.133 123.713L151.149 112.597L170.209 127.957C173.015 130.167 176.662 131.401 180.451 131.421C182.554 131.42 184.632 131.031 186.548 130.28C189.155 129.369 191.389 127.804 192.966 125.785C194.542 123.766 195.389 121.385 195.398 118.945L195.471 67.2721C195.461 64.824 194.608 62.4341 193.021 60.4097C191.434 58.3854 189.185 56.8193 186.564 55.9129ZM133.466 123.688C133.463 125.722 132.529 127.671 130.871 129.106C129.212 130.541 126.964 131.346 124.621 131.343L45.1159 131.231C42.773 131.228 40.5272 130.417 38.8725 128.977C37.2178 127.537 36.2899 125.585 36.2927 123.552L36.3788 62.2188C36.3817 60.1854 37.3151 58.2367 38.9738 56.8012C40.6325 55.3658 42.8806 54.5612 45.2235 54.5645L124.729 54.6761C127.072 54.6794 129.317 55.4903 130.972 56.9304C132.627 58.3705 133.555 60.3218 133.552 62.3552L133.466 123.688ZM177.65 113.017L152.855 93.049L177.706 73.1505L177.65 113.017Z" fill="#4BFF88"/>
<path d="M117.705 92.9996L66.601 125.353L66.6921 60.5023L117.705 92.9996Z" fill="#4BFF88"/>
</svg>
