<svg width="26" height="25" viewBox="0 0 26 25" fill="none" xmlns="http://www.w3.org/2000/svg">
<path d="M12.857 24.0681C10.3142 24.0681 7.82839 23.3623 5.71406 22.04C3.59973 20.7177 1.95181 18.8382 0.97869 16.6393C0.00557088 14.4404 -0.249042 12.0207 0.24705 9.68634C0.743142 7.35196 1.96766 5.2077 3.76575 3.5247C5.56384 1.84171 7.85474 0.695574 10.3488 0.231237C12.8428 -0.2331 15.4279 0.00521429 17.7772 0.916044C20.1265 1.82687 22.1345 3.36931 23.5473 5.3483C24.96 7.32729 25.7141 9.65396 25.7141 12.0341C25.7141 15.2257 24.3595 18.2866 21.9484 20.5434C19.5372 22.8003 16.2669 24.0681 12.857 24.0681ZM12.857 1.60455C10.6532 1.60455 8.49888 2.21623 6.66646 3.36224C4.83404 4.50825 3.40584 6.13712 2.56247 8.04286C1.7191 9.94861 1.49844 12.0456 1.92838 14.0688C2.35833 16.0919 3.41958 17.9503 4.97792 19.4089C6.53626 20.8675 8.52172 21.8608 10.6832 22.2632C12.8447 22.6656 15.0851 22.4591 17.1212 21.6697C19.1573 20.8803 20.8975 19.5435 22.1219 17.8284C23.3463 16.1133 23.9998 14.0968 23.9998 12.0341C23.9998 9.26799 22.8259 6.6152 20.7362 4.65928C18.6465 2.70337 15.8123 1.60455 12.857 1.60455V1.60455Z" fill="#FF8E3C"/>
<path d="M12.857 18.4524C12.518 18.4524 12.1865 18.3583 11.9046 18.182C11.6227 18.0056 11.403 17.7551 11.2732 17.4619C11.1435 17.1687 11.1095 16.846 11.1757 16.5348C11.2418 16.2235 11.4051 15.9376 11.6449 15.7132C11.8846 15.4888 12.1901 15.336 12.5226 15.2741C12.8551 15.2122 13.1998 15.244 13.5131 15.3654C13.8263 15.4869 14.094 15.6925 14.2824 15.9564C14.4708 16.2203 14.5713 16.5305 14.5713 16.8478C14.5713 17.2734 14.3907 17.6815 14.0692 17.9824C13.7477 18.2833 13.3117 18.4524 12.857 18.4524V18.4524Z" fill="#FF8E3C"/>
<path d="M12.857 13.6386C12.6297 13.6386 12.4117 13.5541 12.2509 13.4037C12.0902 13.2532 11.9999 13.0491 11.9999 12.8364V5.61593C11.9999 5.40316 12.0902 5.19909 12.2509 5.04864C12.4117 4.89818 12.6297 4.81366 12.857 4.81366C13.0843 4.81366 13.3024 4.89818 13.4631 5.04864C13.6238 5.19909 13.7141 5.40316 13.7141 5.61593V12.8364C13.7141 13.0491 13.6238 13.2532 13.4631 13.4037C13.3024 13.5541 13.0843 13.6386 12.857 13.6386Z" fill="#FF8E3C"/>
</svg>
