<svg width="29" height="28" viewBox="0 0 29 28" fill="none" xmlns="http://www.w3.org/2000/svg">
<path d="M13.649 16.6731L11.5986 14.6228L25.7968 0.424638C26.0687 0.152747 26.4374 0 26.8219 0C27.2065 0 27.5752 0.152747 27.8471 0.424638C28.119 0.696545 28.2717 1.06532 28.2717 1.44983C28.2717 1.83435 28.119 2.20312 27.8471 2.47503L13.649 16.6731Z" fill="#D9925F"/>
<path d="M10.0618 28C9.94047 28.0002 9.82026 27.9768 9.7079 27.931C7.04927 26.974 4.72137 25.2737 3.001 23.0321C1.28062 20.7906 0.240143 18.1022 0.00326579 15.2865C-0.00907074 15.1384 0.013652 14.9894 0.0695944 14.8516C0.125537 14.7139 0.213127 14.5912 0.325275 14.4936C0.437423 14.396 0.570978 14.3262 0.715128 14.2898C0.859279 14.2534 1.00997 14.2514 1.15502 14.2841C3.55283 14.8526 6.07624 14.5126 8.23806 13.3297L8.25154 13.3223L9.8842 12.4232C10.0528 12.3304 10.2457 12.2912 10.4371 12.3109C10.6286 12.3305 10.8095 12.4079 10.9558 12.533L16.2805 17.0782C16.4355 17.2104 16.5436 17.3892 16.5887 17.5879C16.6338 17.7866 16.6134 17.9945 16.5307 18.1807C16.5159 18.2152 16.0695 19.1857 15.7427 19.896L15.4074 20.6247C14.2545 23.227 12.6791 25.6208 10.745 27.709C10.6566 27.8011 10.5505 27.8743 10.4331 27.9243C10.3157 27.9743 10.1894 28 10.0618 28Z" fill="#FFD58C"/>
<path d="M16.1184 19.1318L9.54785 12.5613L11.6127 11.5288C12.0514 11.3095 12.548 11.2337 13.0322 11.3123C13.5164 11.3908 13.9636 11.6197 14.3104 11.9665L16.713 14.3692C17.0598 14.716 17.2887 15.1632 17.3673 15.6474C17.4459 16.1316 17.3701 16.6282 17.1508 17.0669L16.1184 19.1318Z" fill="#FA6D62"/>
<path d="M24.0617 2.1597L17.9106 8.31084L19.961 10.3612L26.1121 4.21004L24.0617 2.1597Z" fill="#FA6D62"/>
<path d="M4.17044 24.3306C5.93519 23.0089 7.46588 21.4007 8.69886 19.5728C6.47884 20.4988 4.10153 20.9895 1.69629 21.0182C2.35516 22.237 3.18869 23.3529 4.17044 24.3306Z" fill="#D9925F"/>
</svg>
