<svg width="28" height="25" viewBox="0 0 28 25" fill="none" xmlns="http://www.w3.org/2000/svg">
<path d="M20.5333 10.2941V3.30882L13.0667 0L5.6 3.30882V11.0294L0 13.4191V21.5074L7.46667 24.8162L14 22.0588L20.5333 25L28 21.6912V13.4191L20.5333 10.2941V10.2941ZM13.0667 2.02206L18.2933 4.22794L13.2533 6.25L8.4 4.04412L13.0667 2.02206ZM13.0667 7.35294V12.6838L7.46667 10.2941V4.77941L13.0667 7.35294ZM7.46667 22.9779L1.86667 20.5882V15.0735L7.46667 17.6471V22.9779ZM7.46667 16.5441L2.61333 14.3382L7.46667 12.3162L12.6933 14.5221L7.46667 16.5441ZM20.5333 22.9779L14.9333 20.5882V15.0735L20.5333 17.6471V22.9779ZM20.5333 16.5441L15.68 14.3382L20.5333 12.3162L25.76 14.5221L20.5333 16.5441Z" fill="#5C5C5C"/>
</svg>
