<?xml version="1.0" encoding="UTF-8" standalone="no"?>
<svg
   xmlns:dc="http://purl.org/dc/elements/1.1/"
   xmlns:cc="http://creativecommons.org/ns#"
   xmlns:rdf="http://www.w3.org/1999/02/22-rdf-syntax-ns#"
   xmlns:svg="http://www.w3.org/2000/svg"
   xmlns="http://www.w3.org/2000/svg"
   xmlns:sodipodi="http://sodipodi.sourceforge.net/DTD/sodipodi-0.dtd"
   xmlns:inkscape="http://www.inkscape.org/namespaces/inkscape"
   inkscape:export-ydpi="576"
   inkscape:export-xdpi="576"
   inkscape:export-filename="C:\Users\RainBoyz\Desktop\DONE\Filedline [Done!]\4 - Sunny.png"
   sodipodi:docname="Template Export.svg"
   inkscape:version="1.0 (4035a4fb49, 2020-05-01)"
   id="svg831"
   version="1.1"
   viewBox="0 0 22.577778 22.577778"
   height="64pt"
   width="64pt">
  <defs
     id="defs825">
    <pattern
       y="0"
       x="0"
       height="6"
       width="6"
       patternUnits="userSpaceOnUse"
       id="EMFhbasepattern" />
    <pattern
       y="0"
       x="0"
       height="6"
       width="6"
       patternUnits="userSpaceOnUse"
       id="EMFhbasepattern-9" />
    <pattern
       y="0"
       x="0"
       height="6"
       width="6"
       patternUnits="userSpaceOnUse"
       id="EMFhbasepattern-0" />
    <pattern
       y="0"
       x="0"
       height="6"
       width="6"
       patternUnits="userSpaceOnUse"
       id="EMFhbasepattern-7" />
    <pattern
       y="0"
       x="0"
       height="6"
       width="6"
       patternUnits="userSpaceOnUse"
       id="EMFhbasepattern-2" />
    <pattern
       y="0"
       x="0"
       height="6"
       width="6"
       patternUnits="userSpaceOnUse"
       id="EMFhbasepattern-98" />
    <pattern
       y="0"
       x="0"
       height="6"
       width="6"
       patternUnits="userSpaceOnUse"
       id="EMFhbasepattern-6" />
    <pattern
       y="0"
       x="0"
       height="6"
       width="6"
       patternUnits="userSpaceOnUse"
       id="EMFhbasepattern-01" />
    <pattern
       y="0"
       x="0"
       height="6"
       width="6"
       patternUnits="userSpaceOnUse"
       id="EMFhbasepattern-07" />
    <pattern
       y="0"
       x="0"
       height="6"
       width="6"
       patternUnits="userSpaceOnUse"
       id="EMFhbasepattern-8" />
    <pattern
       y="0"
       x="0"
       height="6"
       width="6"
       patternUnits="userSpaceOnUse"
       id="EMFhbasepattern-4" />
    <pattern
       y="0"
       x="0"
       height="6"
       width="6"
       patternUnits="userSpaceOnUse"
       id="EMFhbasepattern-40" />
    <pattern
       y="0"
       x="0"
       height="6"
       width="6"
       patternUnits="userSpaceOnUse"
       id="EMFhbasepattern-08" />
    <pattern
       y="0"
       x="0"
       height="6"
       width="6"
       patternUnits="userSpaceOnUse"
       id="EMFhbasepattern-04" />
    <pattern
       y="0"
       x="0"
       height="6"
       width="6"
       patternUnits="userSpaceOnUse"
       id="EMFhbasepattern-014" />
    <pattern
       y="0"
       x="0"
       height="6"
       width="6"
       patternUnits="userSpaceOnUse"
       id="EMFhbasepattern-27" />
    <pattern
       y="0"
       x="0"
       height="6"
       width="6"
       patternUnits="userSpaceOnUse"
       id="EMFhbasepattern-09" />
    <pattern
       y="0"
       x="0"
       height="6"
       width="6"
       patternUnits="userSpaceOnUse"
       id="EMFhbasepattern-5" />
    <pattern
       y="0"
       x="0"
       height="6"
       width="6"
       patternUnits="userSpaceOnUse"
       id="EMFhbasepattern-018" />
  </defs>
  <sodipodi:namedview
     inkscape:document-rotation="0"
     inkscape:snap-global="true"
     inkscape:snap-nodes="false"
     inkscape:bbox-nodes="true"
     inkscape:snap-bbox="true"
     showguides="true"
     inkscape:snap-midpoints="true"
     inkscape:snap-smooth-nodes="true"
     inkscape:snap-intersection-paths="true"
     inkscape:object-paths="true"
     inkscape:showpageshadow="false"
     inkscape:pagecheckerboard="true"
     inkscape:window-maximized="1"
     inkscape:window-y="-8"
     inkscape:window-x="-8"
     inkscape:window-height="715"
     inkscape:window-width="1366"
     units="pt"
     showgrid="false"
     inkscape:current-layer="g724"
     inkscape:document-units="pt"
     inkscape:cy="42.778201"
     inkscape:cx="-4.2778197"
     inkscape:zoom="4.4415145"
     inkscape:pageshadow="2"
     inkscape:pageopacity="0.0"
     borderopacity="1.0"
     bordercolor="#666666"
     pagecolor="#ffffff"
     id="base">
    <inkscape:grid
       id="grid1378"
       type="xygrid" />
    <sodipodi:guide
       inkscape:locked="false"
       id="guide1380"
       orientation="78.000048,0"
       position="0.97013831,21.607643" />
    <sodipodi:guide
       inkscape:locked="false"
       id="guide1382"
       orientation="0,78.000005"
       position="0.97013831,0.97013129" />
    <sodipodi:guide
       inkscape:locked="false"
       id="guide1384"
       orientation="-78.000048,0"
       position="21.607639,0.97013129" />
    <sodipodi:guide
       inkscape:locked="false"
       id="guide1386"
       orientation="0,-78.000005"
       position="21.607639,21.607643" />
  </sodipodi:namedview>
  <metadata
     id="metadata828">
    <rdf:RDF>
      <cc:Work
         rdf:about="">
        <dc:format>image/svg+xml</dc:format>
        <dc:type
           rdf:resource="http://purl.org/dc/dcmitype/StillImage" />
        <dc:title></dc:title>
      </cc:Work>
    </rdf:RDF>
  </metadata>
  <g
     transform="translate(0,-274.42223)"
     id="layer1"
     inkscape:groupmode="layer"
     inkscape:label="Icon">
    <g
       transform="matrix(1.2580549,0,0,1.2580549,77.385914,-38.905126)"
       style="display:inline"
       id="g724">
      <g
         transform="matrix(1.0825372,0,0,1.0825372,-94.726261,-21.297135)"
         id="g1808">
        <path
           style="color:#000000;font-style:normal;font-variant:normal;font-weight:normal;font-stretch:normal;font-size:medium;line-height:normal;font-family:sans-serif;font-variant-ligatures:normal;font-variant-position:normal;font-variant-caps:normal;font-variant-numeric:normal;font-variant-alternates:normal;font-variant-east-asian:normal;font-feature-settings:normal;font-variation-settings:normal;text-indent:0;text-align:start;text-decoration:none;text-decoration-line:none;text-decoration-style:solid;text-decoration-color:#000000;letter-spacing:normal;word-spacing:normal;text-transform:none;writing-mode:lr-tb;direction:ltr;text-orientation:mixed;dominant-baseline:auto;baseline-shift:baseline;text-anchor:start;white-space:normal;shape-padding:0;shape-margin:0;inline-size:0;clip-rule:nonzero;display:inline;overflow:visible;visibility:visible;isolation:auto;mix-blend-mode:normal;color-interpolation:sRGB;color-interpolation-filters:linearRGB;solid-color:#000000;solid-opacity:1;vector-effect:none;fill:#febe40;fill-opacity:1;fill-rule:nonzero;stroke:none;stroke-width:0.529167;stroke-linecap:round;stroke-linejoin:round;stroke-miterlimit:4;stroke-dasharray:none;stroke-dashoffset:0;stroke-opacity:1;color-rendering:auto;image-rendering:auto;shape-rendering:auto;text-rendering:auto;enable-background:accumulate;stop-color:#000000"
           d="m 38.558594,253.57227 c -2.471885,0.005 -4.478523,2.01519 -4.478516,4.45898 -7e-6,2.44378 2.006637,4.45168 4.478516,4.45703 1.604129,0.003 3.016625,-0.83573 3.8125,-2.09961 a 0.26460996,0.26460996 0 0 0 0.03906,-0.11523 l 0.363282,-3.70899 a 0.26460996,0.26460996 0 0 0 -0.01563,-0.12109 c -0.649324,-1.68171 -2.287718,-2.87523 -4.199218,-2.87109 z"
           id="path1612" />
        <path
           id="path1679"
           style="color:#000000;font-style:normal;font-variant:normal;font-weight:normal;font-stretch:normal;font-size:medium;line-height:normal;font-family:sans-serif;font-variant-ligatures:normal;font-variant-position:normal;font-variant-caps:normal;font-variant-numeric:normal;font-variant-alternates:normal;font-variant-east-asian:normal;font-feature-settings:normal;font-variation-settings:normal;text-indent:0;text-align:start;text-decoration:none;text-decoration-line:none;text-decoration-style:solid;text-decoration-color:#000000;letter-spacing:normal;word-spacing:normal;text-transform:none;writing-mode:lr-tb;direction:ltr;text-orientation:mixed;dominant-baseline:auto;baseline-shift:baseline;text-anchor:start;white-space:normal;shape-padding:0;shape-margin:0;inline-size:0;clip-rule:nonzero;display:inline;overflow:visible;visibility:visible;isolation:auto;mix-blend-mode:normal;color-interpolation:sRGB;color-interpolation-filters:linearRGB;solid-color:#000000;solid-opacity:1;vector-effect:none;fill:#eda824;fill-opacity:1;fill-rule:nonzero;stroke:none;stroke-width:2.24707;stroke-linecap:round;stroke-linejoin:round;stroke-miterlimit:4;stroke-dasharray:none;stroke-dashoffset:0;stroke-opacity:1;color-rendering:auto;image-rendering:auto;shape-rendering:auto;text-rendering:auto;enable-background:accumulate;stop-color:#000000"
           d="m 40.772705,255.56118 c -1.111281,0 -2.024681,0.91392 -2.024681,2.0252 0,0.0648 0.02569,0.11773 0.03204,0.18035 -0.0016,10e-4 -0.0021,5.5e-4 -0.0036,0.002 -0.382137,0.27517 -0.693772,0.71999 -0.852143,1.30121 a 0.59923097,0.59923097 0 0 0 -0.0041,0.0176 c -0.0076,0.0312 -0.01286,0.0627 -0.01704,0.0946 -7.94e-4,0.004 -0.09046,0.56093 0.214458,1.12345 0.32058,0.5914 1.052137,1.04204 2.067058,1.0511 -0.03225,-0.002 0.576868,0.0139 1.345652,0.015 0.324996,-0.28525 0.609497,-0.61509 0.840777,-0.98237 a 0.26460996,0.26460996 0 0 0 0.03928,-0.11524 l 0.363283,-3.70933 a 0.26460996,0.26460996 0 0 0 -0.01601,-0.12092 c -0.116364,-0.30138 -0.265547,-0.58621 -0.441317,-0.85215 -0.163113,0.0963 -0.31755,0.20732 -0.461471,0.33177 -0.318656,-0.20864 -0.674711,-0.36174 -1.082106,-0.36174 z" />
        <path
           style="color:#000000;font-style:normal;font-variant:normal;font-weight:normal;font-stretch:normal;font-size:medium;line-height:normal;font-family:sans-serif;font-variant-ligatures:normal;font-variant-position:normal;font-variant-caps:normal;font-variant-numeric:normal;font-variant-alternates:normal;font-variant-east-asian:normal;font-feature-settings:normal;font-variation-settings:normal;text-indent:0;text-align:start;text-decoration:none;text-decoration-line:none;text-decoration-style:solid;text-decoration-color:#000000;letter-spacing:normal;word-spacing:normal;text-transform:none;writing-mode:lr-tb;direction:ltr;text-orientation:mixed;dominant-baseline:auto;baseline-shift:baseline;text-anchor:start;white-space:normal;shape-padding:0;shape-margin:0;inline-size:0;clip-rule:nonzero;display:inline;overflow:visible;visibility:visible;isolation:auto;mix-blend-mode:normal;color-interpolation:sRGB;color-interpolation-filters:linearRGB;solid-color:#000000;solid-opacity:1;vector-effect:none;fill:#d0e2ee;fill-opacity:1;fill-rule:nonzero;stroke:none;stroke-width:0.529167;stroke-linecap:round;stroke-linejoin:round;stroke-miterlimit:4;stroke-dasharray:none;stroke-dashoffset:0;stroke-opacity:1;color-rendering:auto;image-rendering:auto;shape-rendering:auto;text-rendering:auto;enable-background:accumulate;stop-color:#000000"
           d="m 43.111582,256.14047 c -0.57459,0 -1.082841,0.29007 -1.389062,0.73329 -0.233535,-0.28399 -0.586256,-0.46767 -0.982369,-0.46767 -0.697751,0 -1.26969,0.57194 -1.26969,1.26969 0,0.15765 0.0321,0.30805 0.08578,0.44803 -0.09274,0.0354 -0.09515,0.13487 -0.188589,0.20217 -0.233675,0.16826 -0.444016,0.45014 -0.557072,0.86506 -0.0026,0.0111 -0.0045,0.0223 -0.0057,0.0336 0,0 -0.141545,0.28103 0.04079,0.61742 0.182345,0.33638 0.61673,0.64952 1.375108,0.65629 0.0069,2.7e-4 0.863119,0.0347 1.941486,0.0114 1.070467,-0.0231 2.339526,-0.10182 3.245795,-0.33744 0.01035,-6.4e-4 0.394999,-0.0236 0.728639,-0.29146 0.169055,-0.13573 0.324675,-0.34412 0.382923,-0.6227 0.05825,-0.27857 0.02297,-0.61383 -0.130744,-1.01389 -0.0029,-0.008 -0.0062,-0.0156 -0.0098,-0.0232 0,0 -0.151355,-0.31446 -0.480592,-0.53744 -0.164618,-0.11148 -0.383603,-0.19291 -0.63872,-0.20464 v -5.3e-4 c -0.149796,-0.007 -0.313732,0.0144 -0.485243,0.0651 -0.137057,-0.79435 -0.830651,-1.40301 -1.662946,-1.40301 z"
           id="path1640"
           sodipodi:nodetypes="ccssccccccccssccsccccc" />
        <path
           id="path1163"
           style="color:#000000;font-style:normal;font-variant:normal;font-weight:normal;font-stretch:normal;font-size:medium;line-height:normal;font-family:sans-serif;font-variant-ligatures:normal;font-variant-position:normal;font-variant-caps:normal;font-variant-numeric:normal;font-variant-alternates:normal;font-variant-east-asian:normal;font-feature-settings:normal;font-variation-settings:normal;text-indent:0;text-align:start;text-decoration:none;text-decoration-line:none;text-decoration-style:solid;text-decoration-color:#000000;letter-spacing:normal;word-spacing:normal;text-transform:none;writing-mode:lr-tb;direction:ltr;text-orientation:mixed;dominant-baseline:auto;baseline-shift:baseline;text-anchor:start;white-space:normal;shape-padding:0;shape-margin:0;inline-size:0;clip-rule:nonzero;display:inline;overflow:visible;visibility:visible;opacity:1;isolation:auto;mix-blend-mode:normal;color-interpolation:sRGB;color-interpolation-filters:linearRGB;solid-color:#000000;solid-opacity:1;vector-effect:none;fill:#000000;fill-opacity:1;fill-rule:nonzero;stroke:none;stroke-width:0.529167;stroke-linecap:round;stroke-linejoin:round;stroke-miterlimit:4;stroke-dasharray:none;stroke-dashoffset:0;stroke-opacity:1;color-rendering:auto;image-rendering:auto;shape-rendering:auto;text-rendering:auto;enable-background:accumulate;stop-color:#000000;stop-opacity:1"
           d="m 38.568188,250.92583 c -0.146934,-5.3e-4 -0.266192,0.11868 -0.265618,0.26562 v 1.58802 c 5.29e-4,0.14612 0.119491,0.26412 0.265618,0.26354 0.145521,-2.6e-4 0.263499,-0.11802 0.264067,-0.26354 v -1.05886 -0.52916 c 5.3e-4,-0.14633 -0.117739,-0.26534 -0.264067,-0.26562 z m 1.918745,0.78238 c -0.0067,9e-5 -0.01344,5.3e-4 -0.02016,0.001 -0.113038,0.007 -0.208822,0.0859 -0.238228,0.19534 l -0.205155,0.76532 c -0.03776,0.14129 0.04626,0.28641 0.187587,0.32401 0.141128,0.0378 0.286178,-0.046 0.324008,-0.18706 l 0.205158,-0.76585 c 0.03776,-0.14128 -0.04626,-0.28641 -0.187587,-0.32401 -0.02143,-0.006 -0.04347,-0.009 -0.06563,-0.009 z m -3.844208,0.001 c -0.02323,7e-5 -0.04633,0.003 -0.06873,0.009 -0.140351,0.0378 -0.22388,0.18184 -0.187068,0.32247 l 0.204639,0.76739 c 0.03759,0.14159 0.183073,0.22568 0.324527,0.18759 0.14133,-0.0376 0.225351,-0.18273 0.187587,-0.32401 l -0.205158,-0.7674 c -0.03131,-0.11508 -0.136178,-0.19516 -0.255796,-0.19497 z m -2.071709,0.2682 c -0.0048,2.1e-4 -0.0097,5.3e-4 -0.01447,0.001 -0.03708,0.003 -0.073,0.0148 -0.10542,0.0331 -0.127032,0.0728 -0.170805,0.2349 -0.09767,0.36174 l 0.794784,1.37459 c 0.07279,0.12703 0.234903,0.17081 0.361736,0.0977 0.125973,-0.0735 0.168733,-0.23504 0.0956,-0.36122 l -0.793234,-1.37505 c -0.04951,-0.0855 -0.142587,-0.13638 -0.241329,-0.13177 z m 7.95972,0.0326 c -0.08968,0.004 -0.171204,0.0532 -0.216524,0.13074 l -0.792716,1.37511 c -0.07313,0.12617 -0.03037,0.28773 0.0956,0.36122 0.126177,0.0731 0.287734,0.0304 0.361217,-0.0956 l 0.7953,-1.37511 c 0.07278,-0.12671 0.02905,-0.28844 -0.09767,-0.36121 -0.0375,-0.0216 -0.07973,-0.0337 -0.122989,-0.0351 -0.0074,-2.7e-4 -0.01482,-2.7e-4 -0.02223,0 z m -3.972367,1.56217 c -2.471885,0.005 -4.478287,2.01537 -4.478279,4.45916 -8e-6,2.44378 2.006402,4.45175 4.478279,4.4571 1.553925,0.003 2.926704,-0.78519 3.734657,-1.98334 1.042557,-0.0266 2.244432,-0.10697 3.115054,-0.33332 0.01034,-6.3e-4 0.394999,-0.0231 0.728638,-0.29094 0.169056,-0.13573 0.324676,-0.34463 0.382924,-0.62321 0.06403,-0.38912 0.0176,-0.70594 -0.14056,-1.03715 0,0 -0.151291,-0.31402 -0.480592,-0.53692 -0.16465,-0.11145 -0.383572,-0.19354 -0.63872,-0.20515 -0.149841,-0.007 -0.313703,0.0154 -0.485243,0.0667 -0.136438,-0.79509 -0.830128,-1.40457 -1.662946,-1.40457 -0.158036,0 -0.311012,0.0236 -0.456303,0.0646 -0.707096,-1.55453 -2.277369,-2.63685 -4.096909,-2.63292 z m -5.257559,0.0605 c -0.0678,0.002 -0.132175,0.0303 -0.179835,0.0785 -0.103645,0.10339 -0.103645,0.27128 0,0.37466 l 0.562756,0.56069 c 0.103203,0.10261 0.269901,0.10261 0.373105,0 0.103989,-0.10344 0.103989,-0.27173 0,-0.37517 l -0.560689,-0.56018 c -0.05144,-0.0521 -0.122161,-0.0805 -0.195337,-0.0785 z m 10.517703,0 c -0.0678,0.002 -0.132175,0.0303 -0.179834,0.0785 l -0.560689,0.56018 c -0.10399,0.10344 -0.10399,0.27173 0,0.37517 0.103203,0.10261 0.269901,0.10261 0.373104,0 l 0.562756,-0.56069 c 0.103645,-0.10338 0.103645,-0.27127 0,-0.37466 -0.05144,-0.0521 -0.122161,-0.0805 -0.195337,-0.0785 z m -5.260144,0.4687 c 1.609791,-0.003 2.992752,0.95464 3.615283,2.32492 -0.177888,0.11937 -0.331579,0.2718 -0.453203,0.44804 -0.232902,-0.28513 -0.585456,-0.46819 -0.980299,-0.46819 -0.697751,0 -1.269691,0.57194 -1.269691,1.26969 0,0.15865 0.03154,0.31002 0.08526,0.45062 -0.425508,0.10877 -0.73683,0.66132 -0.837157,1.01027 -0.02838,0.29484 0.01384,0.48647 0.127124,0.70539 0.182346,0.33638 0.616731,0.649 1.375109,0.65577 0.0057,2.2e-4 0.598776,0.0222 1.405598,0.0176 -0.727934,0.8825 -1.831488,1.4463 -3.068028,1.44384 -2.1863,-0.005 -3.949121,-1.77344 -3.949113,-3.92792 -8e-6,-2.15449 1.762818,-3.9253 3.949113,-3.93 z m -6.914822,0.77773 c -0.08916,0.005 -0.169616,0.0553 -0.213942,0.13281 -0.07313,0.12618 -0.03037,0.28774 0.0956,0.36122 l 1.375111,0.79272 c 0.126177,0.0731 0.287735,0.0304 0.361217,-0.0956 0.07278,-0.12671 0.02905,-0.28844 -0.09767,-0.36121 l -1.373042,-0.79479 c -0.03812,-0.0219 -0.0811,-0.034 -0.125058,-0.0351 -0.0074,-3.2e-4 -0.01482,-3.2e-4 -0.02222,0 z m 8.580872,5.08961 c -0.629161,-0.006 -0.819116,-0.2044 -0.913641,-0.37878 -0.187949,-0.38088 0.08376,-0.8337 0.363286,-0.94362 0.164775,-0.0842 0.339598,-0.0876 0.427363,-0.0801 0.145561,0.0131 0.274212,-0.0942 0.287322,-0.23978 0.01315,-0.14575 -0.09452,-0.27448 -0.240295,-0.28732 -0.01521,-0.001 -0.03702,-0.001 -0.05478,-0.002 -0.05972,-0.10653 -0.09354,-0.22878 -0.09354,-0.36122 0,-0.41177 0.32824,-0.74 0.740008,-0.74 0.34952,0 0.635455,0.24005 0.7152,0.56172 -0.02164,0.10757 -0.03359,0.21905 -0.03359,0.3328 5.29e-4,0.14532 0.118229,0.26298 0.263549,0.26355 0.146127,5.8e-4 0.265049,-0.11743 0.265618,-0.26355 0,-0.64408 0.516567,-1.16014 1.160653,-1.16014 0.644083,0 1.160134,0.51606 1.160134,1.16014 0,0.36103 -0.163462,0.67932 -0.420129,0.89245 -0.11295,0.0932 -0.128698,0.26044 -0.03514,0.3731 0.09321,0.11295 0.26044,0.1287 0.373102,0.0351 0.305795,-0.25392 0.518382,-0.61643 0.586012,-1.02577 0.407054,-0.19344 0.64207,-0.10628 0.825789,0.0181 0.19558,0.13238 0.290147,0.31674 0.295074,0.32608 0.120245,0.32146 0.136869,0.55084 0.105418,0.70125 -0.03215,0.15375 -0.105095,0.24422 -0.197403,0.31833 -0.184619,0.14822 -0.447001,0.17931 -0.447001,0.17931 -1.086294,0.22054 -2.217896,0.30878 -3.207041,0.33228 -0.641982,0.0148 -1.284221,0.008 -1.925978,-0.0119 z m -8.27133,-2.21485 c -0.146934,-5.8e-4 -0.266192,0.11869 -0.265618,0.26562 5.29e-4,0.14613 0.119491,0.26412 0.265618,0.26355 h 0.777213 c 0.146124,5.8e-4 0.265047,-0.11743 0.265616,-0.26355 5.29e-4,-0.14693 -0.118682,-0.26619 -0.265616,-0.26562 z m 1.068152,2.10478 c -0.0045,2.3e-4 -0.009,5.9e-4 -0.01344,10e-4 -0.03794,0.004 -0.07461,0.0158 -0.107487,0.0351 l -1.375111,0.79271 c -0.125974,0.0735 -0.168733,0.23504 -0.0956,0.36122 0.07277,0.12672 0.234503,0.17045 0.36122,0.0977 l 1.373042,-0.79272 c 0.126722,-0.0728 0.170449,-0.2345 0.09767,-0.36122 -0.04879,-0.086 -0.141478,-0.13764 -0.240295,-0.13384 z m 0.855244,1.47898 c -0.005,3e-5 -0.01,2.1e-4 -0.01497,5.3e-4 -0.06672,0.002 -0.130214,0.0291 -0.177768,0.076 l -0.562756,0.56275 c -0.102269,0.10314 -0.102269,0.26945 0,0.37259 0.103439,0.10399 0.271733,0.10399 0.375172,0 l 0.560689,-0.56017 c 0.103989,-0.10344 0.103989,-0.27173 0,-0.37517 -0.04812,-0.0476 -0.112662,-0.075 -0.180351,-0.0765 z m 9.394775,0 c -0.0052,2e-5 -0.01035,2e-4 -0.01551,5.3e-4 -0.06672,0.002 -0.130215,0.0291 -0.177768,0.076 -0.103989,0.10344 -0.103989,0.27173 0,0.37517 l 0.560689,0.56017 c 0.103439,0.10399 0.271732,0.10399 0.375171,0 0.10227,-0.10314 0.10227,-0.26945 0,-0.37259 l -0.562755,-0.56275 c -0.04799,-0.0475 -0.112327,-0.0749 -0.179835,-0.0765 z m -1.526006,0.81029 c -0.04506,7.7e-4 -0.08917,0.013 -0.128156,0.0357 -0.125974,0.0735 -0.168733,0.23504 -0.0956,0.36121 l 0.792716,1.37511 c 0.07279,0.12704 0.234902,0.17081 0.361735,0.0977 0.126722,-0.0728 0.17045,-0.2345 0.09767,-0.36122 l -0.7953,-1.37511 c -0.04373,-0.0767 -0.122806,-0.12647 -0.210839,-0.1328 -0.0076,-6.7e-4 -0.0154,-3.7e-4 -0.02223,-5.3e-4 z m -6.382554,0.032 c -0.08935,0.005 -0.170034,0.0551 -0.214458,0.13281 l -0.794785,1.37459 c -0.07313,0.12683 -0.02936,0.28895 0.09767,0.36174 0.126717,0.0728 0.288447,0.0291 0.36122,-0.0977 l 0.793234,-1.37511 c 0.07313,-0.12618 0.03037,-0.28774 -0.0956,-0.36122 -0.03812,-0.0219 -0.0811,-0.034 -0.125058,-0.0351 -0.0074,-3.2e-4 -0.01482,-3.2e-4 -0.02222,0 z m 3.205488,0.83767 c -0.146934,-5.8e-4 -0.266192,0.11869 -0.265618,0.26562 v 1.05885 0.5271 c -5.29e-4,0.14693 0.118684,0.26619 0.265618,0.26562 0.146328,-2.9e-4 0.264639,-0.11929 0.264067,-0.26562 v -1.58595 c 5.3e-4,-0.14633 -0.117739,-0.26533 -0.264067,-0.26562 z m -1.718241,0.0382 c -0.006,1.4e-4 -0.01206,4.8e-4 -0.0181,10e-4 -0.113816,0.007 -0.210646,0.0853 -0.240295,0.19533 l -0.204639,0.7674 c -0.0378,0.14113 0.04595,0.28618 0.187068,0.32401 0.141454,0.0381 0.286936,-0.046 0.324528,-0.18759 l 0.205157,-0.76739 c 0.03776,-0.14129 -0.04626,-0.28641 -0.187587,-0.32401 -0.02159,-0.006 -0.04381,-0.009 -0.06615,-0.009 z m 3.429248,10e-4 c -0.02307,2.9e-4 -0.046,0.004 -0.06821,0.01 -0.141329,0.0376 -0.22535,0.18273 -0.187586,0.32402 l 0.205155,0.76532 c 0.0376,0.14133 0.182726,0.22535 0.324011,0.18759 0.14133,-0.0376 0.225351,-0.18273 0.187587,-0.32401 l -0.205158,-0.76585 c -0.03072,-0.11606 -0.135736,-0.19689 -0.255796,-0.19688 z"
           sodipodi:nodetypes="ccccccccccccccccccccccccccccccccccccccccccccccccssccsccccccccccccccccsscccccsccccccccccccccccccccccccccsccscssccccscssccsccccccccccccccccccccccccccccccccccccccccccccccccccccccccccccccccccccccccccccccccccccccccc" />
      </g>
    </g>
  </g>
</svg>
