<svg width="43" height="43" viewBox="0 0 43 43" fill="none" xmlns="http://www.w3.org/2000/svg">
<circle cx="21.5" cy="21.5" r="21.5" fill="#242429"/>
<rect x="5.86377" y="5.86365" width="31.2727" height="31.2727" rx="15.6364" fill="#6C8DFF"/>
<path d="M31.0149 12.6662L29.3538 11.0074C29.1823 10.8359 28.9568 10.75 28.7317 10.75C28.5066 10.75 28.2815 10.8356 28.1099 11.0071L26.7812 12.332L29.6862 15.232L31.0149 13.9075C31.3583 13.5644 31.3583 13.0081 31.0149 12.6662Z" fill="#F0F0F0"/>
<path d="M18.1558 20.9411L21.0611 23.8415L29.0641 15.8533L26.1587 12.9529L18.1558 20.9411Z" fill="#F0F0F0"/>
<path d="M17.5284 21.5617L16.9082 25.0801L20.4338 24.4617L17.5284 21.5617Z" fill="#F0F0F0"/>
<path d="M25.5602 26.648H14.6059V15.6937H22.3366L24.2418 13.7923H13.9339C13.2574 13.7923 12.7041 14.3456 12.7041 15.0221V27.32C12.7041 27.9965 13.2574 28.5498 13.9339 28.5498H26.2318C26.9083 28.5498 27.4616 27.9965 27.4616 27.32V18.5275L25.5602 20.4255V26.648Z" fill="#F0F0F0"/>
</svg>
