<?xml version="1.0" encoding="UTF-8" standalone="no"?>
<svg
   xmlns:dc="http://purl.org/dc/elements/1.1/"
   xmlns:cc="http://creativecommons.org/ns#"
   xmlns:rdf="http://www.w3.org/1999/02/22-rdf-syntax-ns#"
   xmlns:svg="http://www.w3.org/2000/svg"
   xmlns="http://www.w3.org/2000/svg"
   xmlns:sodipodi="http://sodipodi.sourceforge.net/DTD/sodipodi-0.dtd"
   xmlns:inkscape="http://www.inkscape.org/namespaces/inkscape"
   inkscape:export-ydpi="576"
   inkscape:export-xdpi="576"
   inkscape:export-filename="D:\project oktober adnan\Filled line(export)\PNG\14 - Winter.png"
   sodipodi:docname="15 - Moon.svg"
   inkscape:version="1.0 (4035a4fb49, 2020-05-01)"
   id="svg831"
   version="1.1"
   viewBox="0 0 22.577778 22.577778"
   height="64pt"
   width="64pt">
  <defs
     id="defs825">
    <pattern
       y="0"
       x="0"
       height="6"
       width="6"
       patternUnits="userSpaceOnUse"
       id="EMFhbasepattern" />
    <pattern
       y="0"
       x="0"
       height="6"
       width="6"
       patternUnits="userSpaceOnUse"
       id="EMFhbasepattern-9" />
    <pattern
       y="0"
       x="0"
       height="6"
       width="6"
       patternUnits="userSpaceOnUse"
       id="EMFhbasepattern-0" />
    <pattern
       y="0"
       x="0"
       height="6"
       width="6"
       patternUnits="userSpaceOnUse"
       id="EMFhbasepattern-7" />
    <pattern
       y="0"
       x="0"
       height="6"
       width="6"
       patternUnits="userSpaceOnUse"
       id="EMFhbasepattern-2" />
    <pattern
       y="0"
       x="0"
       height="6"
       width="6"
       patternUnits="userSpaceOnUse"
       id="EMFhbasepattern-98" />
    <pattern
       y="0"
       x="0"
       height="6"
       width="6"
       patternUnits="userSpaceOnUse"
       id="EMFhbasepattern-6" />
    <pattern
       y="0"
       x="0"
       height="6"
       width="6"
       patternUnits="userSpaceOnUse"
       id="EMFhbasepattern-01" />
    <pattern
       y="0"
       x="0"
       height="6"
       width="6"
       patternUnits="userSpaceOnUse"
       id="EMFhbasepattern-07" />
    <pattern
       y="0"
       x="0"
       height="6"
       width="6"
       patternUnits="userSpaceOnUse"
       id="EMFhbasepattern-8" />
    <pattern
       y="0"
       x="0"
       height="6"
       width="6"
       patternUnits="userSpaceOnUse"
       id="EMFhbasepattern-4" />
    <pattern
       y="0"
       x="0"
       height="6"
       width="6"
       patternUnits="userSpaceOnUse"
       id="EMFhbasepattern-40" />
    <pattern
       y="0"
       x="0"
       height="6"
       width="6"
       patternUnits="userSpaceOnUse"
       id="EMFhbasepattern-08" />
    <pattern
       y="0"
       x="0"
       height="6"
       width="6"
       patternUnits="userSpaceOnUse"
       id="EMFhbasepattern-04" />
    <pattern
       y="0"
       x="0"
       height="6"
       width="6"
       patternUnits="userSpaceOnUse"
       id="EMFhbasepattern-014" />
    <pattern
       y="0"
       x="0"
       height="6"
       width="6"
       patternUnits="userSpaceOnUse"
       id="EMFhbasepattern-27" />
    <pattern
       y="0"
       x="0"
       height="6"
       width="6"
       patternUnits="userSpaceOnUse"
       id="EMFhbasepattern-09" />
    <pattern
       y="0"
       x="0"
       height="6"
       width="6"
       patternUnits="userSpaceOnUse"
       id="EMFhbasepattern-5" />
    <pattern
       y="0"
       x="0"
       height="6"
       width="6"
       patternUnits="userSpaceOnUse"
       id="EMFhbasepattern-018" />
  </defs>
  <sodipodi:namedview
     inkscape:lockguides="true"
     inkscape:document-rotation="0"
     inkscape:snap-global="true"
     inkscape:snap-nodes="false"
     inkscape:bbox-nodes="true"
     inkscape:snap-bbox="true"
     showguides="true"
     inkscape:snap-midpoints="true"
     inkscape:snap-smooth-nodes="true"
     inkscape:snap-intersection-paths="true"
     inkscape:object-paths="true"
     inkscape:showpageshadow="false"
     inkscape:pagecheckerboard="true"
     inkscape:window-maximized="1"
     inkscape:window-y="-8"
     inkscape:window-x="-8"
     inkscape:window-height="706"
     inkscape:window-width="1366"
     units="pt"
     showgrid="false"
     inkscape:current-layer="layer1"
     inkscape:document-units="pt"
     inkscape:cy="42.778201"
     inkscape:cx="34.109987"
     inkscape:zoom="4.4415145"
     inkscape:pageshadow="2"
     inkscape:pageopacity="0.0"
     borderopacity="1.0"
     bordercolor="#666666"
     pagecolor="#ffffff"
     id="base">
    <inkscape:grid
       id="grid1378"
       type="xygrid" />
    <sodipodi:guide
       inkscape:locked="true"
       id="guide1380"
       orientation="78.000048,0"
       position="0.97013831,21.607643" />
    <sodipodi:guide
       inkscape:locked="true"
       id="guide1382"
       orientation="0,78.000005"
       position="0.97013831,0.97013129" />
    <sodipodi:guide
       inkscape:locked="true"
       id="guide1384"
       orientation="-78.000048,0"
       position="21.607639,0.97013129" />
    <sodipodi:guide
       inkscape:locked="true"
       id="guide1386"
       orientation="0,-78.000005"
       position="21.607639,21.607643" />
  </sodipodi:namedview>
  <metadata
     id="metadata828">
    <rdf:RDF>
      <cc:Work
         rdf:about="">
        <dc:format>image/svg+xml</dc:format>
        <dc:type
           rdf:resource="http://purl.org/dc/dcmitype/StillImage" />
        <dc:title></dc:title>
      </cc:Work>
    </rdf:RDF>
  </metadata>
  <g
     transform="translate(0,-274.42223)"
     id="layer1"
     inkscape:groupmode="layer"
     inkscape:label="Icon">
    <g
       transform="matrix(1.2580678,0,0,1.2580678,-76.119461,-38.937378)"
       style="display:inline;stroke-width:0.79487"
       id="g1309">
      <g
         style="stroke-width:0.79487"
         id="g1222">
        <path
           sodipodi:nodetypes="cssccsscc"
           id="path1512"
           d="m 70.023438,249.93564 c -4.068187,0.17932 -7.386866,2.73816 -8.085938,6.65225 -0.699075,3.91409 1.51402,7.76932 5.246094,9.14063 3.732072,1.3713 7.914553,-0.13477 9.916015,-3.57032 0.112041,-0.19254 -0.04944,-0.3521 -0.269531,-0.31773 -2.476588,0.38707 -4.364052,0.1645 -5.736328,-0.44531 -1.372276,-0.60981 -2.240558,-1.67614 -2.701172,-2.87954 -0.921227,-2.40679 -0.158496,-5.70537 1.837891,-8.25976 0.135623,-0.17321 0.01295,-0.31913 -0.207031,-0.32022 z"
           style="color:#000000;font-style:normal;font-variant:normal;font-weight:normal;font-stretch:normal;font-size:medium;line-height:normal;font-family:sans-serif;font-variant-ligatures:normal;font-variant-position:normal;font-variant-caps:normal;font-variant-numeric:normal;font-variant-alternates:normal;font-variant-east-asian:normal;font-feature-settings:normal;font-variation-settings:normal;text-indent:0;text-align:start;text-decoration:none;text-decoration-line:none;text-decoration-style:solid;text-decoration-color:#000000;letter-spacing:normal;word-spacing:normal;text-transform:none;writing-mode:lr-tb;direction:ltr;text-orientation:mixed;dominant-baseline:auto;baseline-shift:baseline;text-anchor:start;white-space:normal;shape-padding:0;shape-margin:0;inline-size:0;clip-rule:nonzero;display:inline;overflow:visible;visibility:visible;isolation:auto;mix-blend-mode:normal;color-interpolation:sRGB;color-interpolation-filters:linearRGB;solid-color:#000000;solid-opacity:1;vector-effect:none;fill:#aabfd0;fill-opacity:1;fill-rule:nonzero;stroke:none;stroke-width:0.420619;stroke-linecap:round;stroke-linejoin:round;stroke-miterlimit:4;stroke-dasharray:none;stroke-dashoffset:0;stroke-opacity:1;color-rendering:auto;image-rendering:auto;shape-rendering:auto;text-rendering:auto;enable-background:accumulate;stop-color:#000000" />
        <path
           sodipodi:nodetypes="cccccssccc"
           id="path1616"
           style="fill:#7d8e9e;fill-opacity:1;stroke:none;stroke-width:0.420619;stroke-linecap:round;stroke-linejoin:round;stroke-opacity:1"
           d="m 70.023635,249.99715 c -0.222462,-2.6e-4 -0.442913,-0.0668 -0.661459,-0.0499 -7.542062,8.61025 1.605667,15.83508 7.379396,12.7701 0.125614,-0.18051 0.245777,-0.36631 0.358116,-0.55914 0.11181,-0.19258 -0.04975,-0.35192 -0.26975,-0.31749 -2.476588,0.38707 -4.363808,0.0876 -5.736085,-0.52225 -1.372275,-0.60981 -2.240513,-1.59953 -2.701126,-2.80293 -0.921229,-2.40679 -0.158774,-5.70505 1.837613,-8.25944 0.135744,-0.1731 0.01327,-0.25767 -0.206705,-0.25893 z" />
        <path
           id="path1395"
           style="color:#000000;font-style:normal;font-variant:normal;font-weight:normal;font-stretch:normal;font-size:medium;line-height:normal;font-family:sans-serif;font-variant-ligatures:normal;font-variant-position:normal;font-variant-caps:normal;font-variant-numeric:normal;font-variant-alternates:normal;font-variant-east-asian:normal;font-feature-settings:normal;font-variation-settings:normal;text-indent:0;text-align:start;text-decoration:none;text-decoration-line:none;text-decoration-style:solid;text-decoration-color:#000000;letter-spacing:normal;word-spacing:normal;text-transform:none;writing-mode:lr-tb;direction:ltr;text-orientation:mixed;dominant-baseline:auto;baseline-shift:baseline;text-anchor:start;white-space:normal;shape-padding:0;shape-margin:0;inline-size:0;clip-rule:nonzero;display:inline;overflow:visible;visibility:visible;isolation:auto;mix-blend-mode:normal;color-interpolation:sRGB;color-interpolation-filters:linearRGB;solid-color:#000000;solid-opacity:1;vector-effect:none;fill:#5b6571;fill-opacity:1;fill-rule:nonzero;stroke:none;stroke-width:0.420619;stroke-linecap:round;stroke-linejoin:round;stroke-miterlimit:4;stroke-dasharray:none;stroke-dashoffset:0;stroke-opacity:1;color-rendering:auto;image-rendering:auto;shape-rendering:auto;text-rendering:auto;enable-background:accumulate;stop-color:#000000"
           d="m 64.048806,260.65441 c -0.544864,0.009 -1.040678,0.27401 -1.372526,0.69091 l -0.114205,0.11266 c 0.478256,1.03806 1.171586,1.97167 2.039152,2.7342 l 0.139009,-0.0708 c 0.655109,-0.27018 1.115177,-0.91651 1.115177,-1.66605 2e-6,-0.99183 -0.810641,-1.80041 -1.802474,-1.80041 -0.0013,-1e-5 -0.0028,-1e-5 -0.0041,0 z" />
        <path
           sodipodi:nodetypes="cccssccccc"
           id="path1399"
           style="color:#000000;font-style:normal;font-variant:normal;font-weight:normal;font-stretch:normal;font-size:medium;line-height:normal;font-family:sans-serif;font-variant-ligatures:normal;font-variant-position:normal;font-variant-caps:normal;font-variant-numeric:normal;font-variant-alternates:normal;font-variant-east-asian:normal;font-feature-settings:normal;font-variation-settings:normal;text-indent:0;text-align:start;text-decoration:none;text-decoration-line:none;text-decoration-style:solid;text-decoration-color:#000000;letter-spacing:normal;word-spacing:normal;text-transform:none;writing-mode:lr-tb;direction:ltr;text-orientation:mixed;dominant-baseline:auto;baseline-shift:baseline;text-anchor:start;white-space:normal;shape-padding:0;shape-margin:0;inline-size:0;clip-rule:nonzero;display:inline;overflow:visible;visibility:visible;isolation:auto;mix-blend-mode:normal;color-interpolation:sRGB;color-interpolation-filters:linearRGB;solid-color:#000000;solid-opacity:1;vector-effect:none;fill:#5b6571;fill-opacity:1;fill-rule:nonzero;stroke:none;stroke-width:0.420619;stroke-linecap:round;stroke-linejoin:round;stroke-miterlimit:4;stroke-dasharray:none;stroke-dashoffset:0;stroke-opacity:1;color-rendering:auto;image-rendering:auto;shape-rendering:auto;text-rendering:auto;enable-background:accumulate;stop-color:#000000"
           d="m 71.309862,261.42373 -0.05013,0.31212 c -7.94e-4,0.005 -0.0016,0.0108 -0.0021,0.016 -0.0064,0.062 -0.0098,0.12501 -0.0098,0.18914 0,0.97206 0.715558,1.80092 1.707391,1.80092 0.879866,0 1.711542,-0.58986 1.860867,-1.46089 0.0024,-0.0129 0.0038,-0.0262 0.0041,-0.0393 l 0.0062,-0.28009 c -1.409647,0.0342 -2.578058,-0.16298 -3.51658,-0.53795 z" />
        <path
           id="path1528"
           style="color:#000000;font-style:normal;font-variant:normal;font-weight:normal;font-stretch:normal;font-size:medium;line-height:normal;font-family:sans-serif;font-variant-ligatures:normal;font-variant-position:normal;font-variant-caps:normal;font-variant-numeric:normal;font-variant-alternates:normal;font-variant-east-asian:normal;font-feature-settings:normal;font-variation-settings:normal;text-indent:0;text-align:start;text-decoration:none;text-decoration-line:none;text-decoration-style:solid;text-decoration-color:#000000;letter-spacing:normal;word-spacing:normal;text-transform:none;writing-mode:lr-tb;direction:ltr;text-orientation:mixed;dominant-baseline:auto;baseline-shift:baseline;text-anchor:start;white-space:normal;shape-padding:0;shape-margin:0;inline-size:0;clip-rule:nonzero;display:inline;overflow:visible;visibility:visible;isolation:auto;mix-blend-mode:normal;color-interpolation:sRGB;color-interpolation-filters:linearRGB;solid-color:#000000;solid-opacity:1;vector-effect:none;fill:#5b6571;fill-opacity:1;fill-rule:nonzero;stroke:none;stroke-width:0.420619;stroke-linecap:round;stroke-linejoin:round;stroke-miterlimit:4;stroke-dasharray:none;stroke-dashoffset:0;stroke-opacity:1;color-rendering:auto;image-rendering:auto;shape-rendering:auto;text-rendering:auto;enable-background:accumulate;stop-color:#000000"
           d="m 62.262868,255.3462 c -0.138356,0.39999 -0.249169,0.81407 -0.325562,1.24179 -0.139618,0.78171 -0.161181,1.5605 -0.07958,2.3182 l 0.24081,0.0191 c 0.118986,0.0246 0.24292,0.0393 0.368454,0.0393 0.991833,0 1.800407,-0.80909 1.800407,-1.80092 0,-0.99183 -0.808577,-1.80248 -1.800407,-1.80248 h 0.01757 z" />
        <path
           style="color:#000000;font-style:normal;font-variant:normal;font-weight:normal;font-stretch:normal;font-size:medium;line-height:normal;font-family:sans-serif;font-variant-ligatures:normal;font-variant-position:normal;font-variant-caps:normal;font-variant-numeric:normal;font-variant-alternates:normal;font-variant-east-asian:normal;font-feature-settings:normal;font-variation-settings:normal;text-indent:0;text-align:start;text-decoration:none;text-decoration-line:none;text-decoration-style:solid;text-decoration-color:#000000;letter-spacing:normal;word-spacing:normal;text-transform:none;writing-mode:lr-tb;direction:ltr;text-orientation:mixed;dominant-baseline:auto;baseline-shift:baseline;text-anchor:start;white-space:normal;shape-padding:0;shape-margin:0;inline-size:0;clip-rule:nonzero;display:inline;overflow:visible;visibility:visible;isolation:auto;mix-blend-mode:normal;color-interpolation:sRGB;color-interpolation-filters:linearRGB;solid-color:#000000;solid-opacity:1;vector-effect:none;fill:#5b6571;fill-opacity:1;fill-rule:nonzero;stroke:none;stroke-width:0.420619;stroke-linecap:round;stroke-linejoin:round;stroke-miterlimit:4;stroke-dasharray:none;stroke-dashoffset:0;stroke-opacity:1;color-rendering:auto;image-rendering:auto;shape-rendering:auto;text-rendering:auto;enable-background:accumulate;stop-color:#000000"
           d="m 65.640625,252.96875 c -0.851731,0 -1.546879,0.6971 -1.546875,1.54883 10e-7,0.85172 0.695147,1.54687 1.546875,1.54687 0.851728,0 1.548828,-0.69515 1.548828,-1.54687 5e-6,-0.85173 -0.697097,-1.54883 -1.548828,-1.54883 z"
           id="path1414" />
        <path
           style="color:#000000;font-style:normal;font-variant:normal;font-weight:normal;font-stretch:normal;font-size:medium;line-height:normal;font-family:sans-serif;font-variant-ligatures:normal;font-variant-position:normal;font-variant-caps:normal;font-variant-numeric:normal;font-variant-alternates:normal;font-variant-east-asian:normal;font-feature-settings:normal;font-variation-settings:normal;text-indent:0;text-align:start;text-decoration:none;text-decoration-line:none;text-decoration-style:solid;text-decoration-color:#000000;letter-spacing:normal;word-spacing:normal;text-transform:none;writing-mode:lr-tb;direction:ltr;text-orientation:mixed;dominant-baseline:auto;baseline-shift:baseline;text-anchor:start;white-space:normal;shape-padding:0;shape-margin:0;inline-size:0;clip-rule:nonzero;display:inline;overflow:visible;visibility:visible;isolation:auto;mix-blend-mode:normal;color-interpolation:sRGB;color-interpolation-filters:linearRGB;solid-color:#000000;solid-opacity:1;vector-effect:none;fill:#5b6571;fill-opacity:1;fill-rule:nonzero;stroke:none;stroke-width:0.420619;stroke-linecap:round;stroke-linejoin:round;stroke-miterlimit:4;stroke-dasharray:none;stroke-dashoffset:0;stroke-opacity:1;color-rendering:auto;image-rendering:auto;shape-rendering:auto;text-rendering:auto;enable-background:accumulate;stop-color:#000000"
           d="m 67.568359,262.71289 c -0.448933,0 -0.820314,0.36944 -0.820312,0.81836 10e-7,0.44892 0.37138,0.81836 0.820312,0.81836 0.448933,0 0.818358,-0.36944 0.81836,-0.81836 3e-6,-0.44893 -0.369427,-0.81836 -0.81836,-0.81836 z"
           id="path1420" />
        <path
           style="color:#000000;font-style:normal;font-variant:normal;font-weight:normal;font-stretch:normal;font-size:medium;line-height:normal;font-family:sans-serif;font-variant-ligatures:normal;font-variant-position:normal;font-variant-caps:normal;font-variant-numeric:normal;font-variant-alternates:normal;font-variant-east-asian:normal;font-feature-settings:normal;font-variation-settings:normal;text-indent:0;text-align:start;text-decoration:none;text-decoration-line:none;text-decoration-style:solid;text-decoration-color:#000000;letter-spacing:normal;word-spacing:normal;text-transform:none;writing-mode:lr-tb;direction:ltr;text-orientation:mixed;dominant-baseline:auto;baseline-shift:baseline;text-anchor:start;white-space:normal;shape-padding:0;shape-margin:0;inline-size:0;clip-rule:nonzero;display:inline;overflow:visible;visibility:visible;isolation:auto;mix-blend-mode:normal;color-interpolation:sRGB;color-interpolation-filters:linearRGB;solid-color:#000000;solid-opacity:1;vector-effect:none;fill:#5b6571;fill-opacity:1;fill-rule:nonzero;stroke:none;stroke-width:0.420619;stroke-linecap:round;stroke-linejoin:round;stroke-miterlimit:4;stroke-dasharray:none;stroke-dashoffset:0;stroke-opacity:1;color-rendering:auto;image-rendering:auto;shape-rendering:auto;text-rendering:auto;enable-background:accumulate;stop-color:#000000"
           d="m 65.873047,257.08398 c -0.448933,0 -0.818362,0.36944 -0.818359,0.81836 0,0.44893 0.369427,0.81836 0.818359,0.81836 0.448932,0 0.818359,-0.36943 0.818359,-0.81836 3e-6,-0.44892 -0.369426,-0.81836 -0.818359,-0.81836 z"
           id="path1427" />
        <path
           style="color:#000000;font-style:normal;font-variant:normal;font-weight:normal;font-stretch:normal;font-size:medium;line-height:normal;font-family:sans-serif;font-variant-ligatures:normal;font-variant-position:normal;font-variant-caps:normal;font-variant-numeric:normal;font-variant-alternates:normal;font-variant-east-asian:normal;font-feature-settings:normal;font-variation-settings:normal;text-indent:0;text-align:start;text-decoration:none;text-decoration-line:none;text-decoration-style:solid;text-decoration-color:#000000;letter-spacing:normal;word-spacing:normal;text-transform:none;writing-mode:lr-tb;direction:ltr;text-orientation:mixed;dominant-baseline:auto;baseline-shift:baseline;text-anchor:start;white-space:normal;shape-padding:0;shape-margin:0;inline-size:0;clip-rule:nonzero;display:inline;overflow:visible;visibility:visible;isolation:auto;mix-blend-mode:normal;color-interpolation:sRGB;color-interpolation-filters:linearRGB;solid-color:#000000;solid-opacity:1;vector-effect:none;fill:#5b6571;fill-opacity:1;fill-rule:nonzero;stroke:none;stroke-width:0.420619;stroke-linecap:round;stroke-linejoin:round;stroke-miterlimit:4;stroke-dasharray:none;stroke-dashoffset:0;stroke-opacity:1;color-rendering:auto;image-rendering:auto;shape-rendering:auto;text-rendering:auto;enable-background:accumulate;stop-color:#000000"
           d="m 70.244141,262.8418 c -0.448933,0 -0.818361,0.36943 -0.81836,0.81836 0,0.44892 0.369427,0.81836 0.81836,0.81836 0.448932,0 0.820311,-0.36944 0.820312,-0.81836 2e-6,-0.44893 -0.371379,-0.81836 -0.820312,-0.81836 z"
           id="path1433" />
        <path
           style="color:#000000;font-style:normal;font-variant:normal;font-weight:normal;font-stretch:normal;font-size:medium;line-height:normal;font-family:sans-serif;font-variant-ligatures:normal;font-variant-position:normal;font-variant-caps:normal;font-variant-numeric:normal;font-variant-alternates:normal;font-variant-east-asian:normal;font-feature-settings:normal;font-variation-settings:normal;text-indent:0;text-align:start;text-decoration:none;text-decoration-line:none;text-decoration-style:solid;text-decoration-color:#000000;letter-spacing:normal;word-spacing:normal;text-transform:none;writing-mode:lr-tb;direction:ltr;text-orientation:mixed;dominant-baseline:auto;baseline-shift:baseline;text-anchor:start;white-space:normal;shape-padding:0;shape-margin:0;inline-size:0;clip-rule:nonzero;display:inline;overflow:visible;visibility:visible;isolation:auto;mix-blend-mode:normal;color-interpolation:sRGB;color-interpolation-filters:linearRGB;solid-color:#000000;solid-opacity:1;vector-effect:none;fill:#fef79c;fill-opacity:1;fill-rule:nonzero;stroke:none;stroke-width:0.420619;stroke-linecap:round;stroke-linejoin:round;stroke-miterlimit:4;stroke-dasharray:none;stroke-dashoffset:0;stroke-opacity:1;color-rendering:auto;image-rendering:auto;shape-rendering:auto;text-rendering:auto;enable-background:accumulate;stop-color:#000000"
           d="m 71.786409,252.55249 a 0.25227969,0.25227969 0 0 0 -0.189936,0.11731 l -0.500909,0.79326 -0.938505,0.0373 a 0.25227969,0.25227969 0 0 0 -0.184349,0.41339 l 0.5996,0.7225 -0.255109,0.90498 a 0.25227969,0.25227969 0 0 0 0.337043,0.30353 l 0.871468,-0.34821 0.782089,0.52138 a 0.25227969,0.25227969 0 0 0 0.391043,-0.22717 l -0.06145,-0.93664 0.737397,-0.58285 a 0.25227969,0.25227969 0 0 0 -0.09311,-0.44132 l -0.910573,-0.2328 -0.32587,-0.88078 a 0.25227969,0.25227969 0 0 0 -0.258833,-0.16386 z"
           id="path1447" />
        <path
           style="color:#000000;font-style:normal;font-variant:normal;font-weight:normal;font-stretch:normal;font-size:medium;line-height:normal;font-family:sans-serif;font-variant-ligatures:normal;font-variant-position:normal;font-variant-caps:normal;font-variant-numeric:normal;font-variant-alternates:normal;font-variant-east-asian:normal;font-feature-settings:normal;font-variation-settings:normal;text-indent:0;text-align:start;text-decoration:none;text-decoration-line:none;text-decoration-style:solid;text-decoration-color:#000000;letter-spacing:normal;word-spacing:normal;text-transform:none;writing-mode:lr-tb;direction:ltr;text-orientation:mixed;dominant-baseline:auto;baseline-shift:baseline;text-anchor:start;white-space:normal;shape-padding:0;shape-margin:0;inline-size:0;clip-rule:nonzero;display:inline;overflow:visible;visibility:visible;isolation:auto;mix-blend-mode:normal;color-interpolation:sRGB;color-interpolation-filters:linearRGB;solid-color:#000000;solid-opacity:1;vector-effect:none;fill:#fef79c;fill-opacity:1;fill-rule:nonzero;stroke:none;stroke-width:0.420619;stroke-linecap:round;stroke-linejoin:round;stroke-miterlimit:4;stroke-dasharray:none;stroke-dashoffset:0;stroke-opacity:1;color-rendering:auto;image-rendering:auto;shape-rendering:auto;text-rendering:auto;enable-background:accumulate;stop-color:#000000"
           d="m 73.491307,256.79785 a 0.25221159,0.25221159 0 0 0 -0.234564,0.17685 l -0.27738,0.8973 -0.897296,0.27924 a 0.25221159,0.25221159 0 0 0 -0.07074,0.44679 l 0.766984,0.54173 -0.01117,0.94011 a 0.25221159,0.25221159 0 0 0 0.402108,0.20478 l 0.752091,-0.56221 0.88985,0.30158 a 0.25221159,0.25221159 0 0 0 0.320197,-0.32019 l -0.301581,-0.888 0.560344,-0.75395 a 0.25221159,0.25221159 0 0 0 -0.204776,-0.40211 l -0.938252,0.0112 -0.543591,-0.76697 a 0.25221159,0.25221159 0 0 0 -0.212223,-0.10612 z"
           id="path1454" />
        <path
           d="m 71.012849,253.46641 -0.855793,0.034 a 0.25227969,0.25227969 0 0 0 -0.184264,0.41335 l 0.599598,0.72228 -0.25521,0.90507 a 0.25227969,0.25227969 0 0 0 0.336996,0.30348 l 0.871556,-0.34783 0.78189,0.52126 a 0.25227969,0.25227969 0 0 0 0.01085,0.007 c 0.03305,-0.82302 -0.370619,-1.81913 -1.305613,-2.55801 z"
           style="fill:#fed883;fill-opacity:1;stroke-width:0.420619;stroke-linecap:round;stroke-linejoin:round"
           id="path1119" />
        <path
           d="m 72.986856,257.84751 -0.0074,0.0246 -0.897429,0.27929 a 0.25221159,0.25221159 0 0 0 -0.07092,0.44673 l 0.767392,0.54181 -0.01132,0.93979 a 0.25221159,0.25221159 0 0 0 0.401922,0.2049 l 0.752125,-0.56199 0.728485,0.24676 c -0.136629,-0.67476 -0.631761,-1.41097 -1.662852,-2.12191 z"
           style="fill:#fed883;fill-opacity:1;stroke-width:0.420619;stroke-linecap:round;stroke-linejoin:round"
           id="path1124" />
      </g>
      <path
         id="path1831"
         style="color:#000000;font-style:normal;font-variant:normal;font-weight:normal;font-stretch:normal;font-size:medium;line-height:normal;font-family:sans-serif;font-variant-ligatures:normal;font-variant-position:normal;font-variant-caps:normal;font-variant-numeric:normal;font-variant-alternates:normal;font-variant-east-asian:normal;font-feature-settings:normal;font-variation-settings:normal;text-indent:0;text-align:start;text-decoration:none;text-decoration-line:none;text-decoration-style:solid;text-decoration-color:#000000;letter-spacing:normal;word-spacing:normal;text-transform:none;writing-mode:lr-tb;direction:ltr;text-orientation:mixed;dominant-baseline:auto;baseline-shift:baseline;text-anchor:start;white-space:normal;shape-padding:0;shape-margin:0;inline-size:0;clip-rule:nonzero;display:inline;overflow:visible;visibility:visible;isolation:auto;mix-blend-mode:normal;color-interpolation:sRGB;color-interpolation-filters:linearRGB;solid-color:#000000;solid-opacity:1;vector-effect:none;fill:#000000;fill-opacity:1;fill-rule:nonzero;stroke:none;stroke-width:0.420619;stroke-linecap:round;stroke-linejoin:round;stroke-miterlimit:4;stroke-dasharray:none;stroke-dashoffset:0;stroke-opacity:1;color-rendering:auto;image-rendering:auto;shape-rendering:auto;text-rendering:auto;enable-background:accumulate;stop-color:#000000"
         d="m 70.035553,249.8512 c -3.976029,-0.005 -7.387257,2.84571 -8.086328,6.7598 -0.699074,3.91409 1.514118,7.76922 5.246193,9.14053 3.732069,1.3713 7.914728,-0.13478 9.916189,-3.57033 a 0.26460995,0.26460995 0 0 0 -0.26975,-0.39429 c -2.476588,0.38707 -4.363808,0.16436 -5.736085,-0.44545 -1.372276,-0.60981 -2.240513,-1.59953 -2.701127,-2.80293 -0.921229,-2.40679 -0.158773,-5.70505 1.837613,-8.25944 a 0.26460995,0.26460995 0 0 0 -0.206705,-0.42789 z m -0.533302,0.62322 c -1.816688,2.59566 -2.542469,5.7689 -1.592149,8.2517 0.506172,1.32243 1.488265,2.43428 2.980695,3.09748 0.119253,0.053 0.243463,0.10146 0.370005,0.1478 0.01117,0.96211 0.722339,1.77818 1.706356,1.77818 0.824709,0 1.607341,-0.51844 1.825212,-1.30069 0.479076,-0.0131 0.979036,-0.0484 1.502749,-0.10956 -1.969923,2.87267 -5.602995,4.13408 -8.9178,2.9161 -0.847617,-0.31144 -1.61058,-0.76005 -2.271697,-1.31206 0.459626,-0.32703 0.761709,-0.86041 0.761709,-1.46503 3e-6,-0.99183 -0.810641,-1.80092 -1.802474,-1.80092 -0.0013,-10e-6 -0.0028,-10e-6 -0.0041,0 -0.405495,0.007 -0.783362,0.15569 -1.087273,0.40256 -0.284705,-0.66291 -0.476642,-1.36807 -0.565341,-2.096 0.02365,9.2e-4 0.04703,0.004 0.0708,0.004 0.991833,0 1.800408,-0.8091 1.800408,-1.80093 0,-0.87503 -0.629971,-1.60809 -1.459342,-1.76888 1.032201,-2.7991 3.64721,-4.73017 6.682278,-4.94389 z m -2.564699,1.52342 a 0.26458349,0.26458349 0 0 0 -0.265618,0.26562 0.26458349,0.26458349 0 0 0 0.265618,0.26355 0.26458349,0.26458349 0 0 0 0.264065,-0.26355 0.26458349,0.26458349 0 0 0 -0.264065,-0.26562 z m 4.898925,0.49093 a 0.26460995,0.26460995 0 0 0 -0.03359,0.001 0.26460995,0.26460995 0 0 0 -0.198956,0.12299 l -0.525547,0.83199 -0.984438,0.0393 a 0.26460995,0.26460995 0 0 0 -0.19327,0.43357 l 0.628904,0.75757 -0.267684,0.9493 a 0.26460995,0.26460995 0 0 0 0.353467,0.31833 l 0.914154,-0.36484 0.820105,0.54674 a 0.26460995,0.26460995 0 0 0 0.410311,-0.23823 l -0.0646,-0.98237 0.773597,-0.61133 a 0.26460995,0.26460995 0 0 0 -0.09767,-0.46302 l -0.954979,-0.24443 -0.342099,-0.92346 a 0.26460995,0.26460995 0 0 0 -0.237712,-0.17312 z m -6.18412,0.50281 c -0.851731,0 -1.546677,0.69753 -1.546675,1.54926 0,0.85172 0.694947,1.54668 1.546675,1.54668 0.851728,0 1.54926,-0.69496 1.54926,-1.54668 5e-6,-0.85173 -0.697529,-1.54926 -1.54926,-1.54926 z m 6.111772,0.3576 0.20464,0.55087 a 0.26460995,0.26460995 0 0 0 0.181901,0.16382 l 0.569992,0.14469 -0.460439,0.36535 a 0.26460995,0.26460995 0 0 0 -0.101801,0.22428 l 0.03927,0.58808 -0.488341,-0.32608 a 0.26460995,0.26460995 0 0 0 -0.246497,-0.0253 l -0.546735,0.21859 0.160194,-0.56844 a 0.26460995,0.26460995 0 0 0 -0.05064,-0.2403 l -0.377238,-0.4532 0.588076,-0.0233 a 0.26460995,0.26460995 0 0 0 0.214974,-0.12299 z m -6.111772,0.17208 c 0.565745,0 1.01958,0.45383 1.019577,1.01958 0,0.56574 -0.453834,1.01751 -1.019577,1.01751 -0.56574,0 -1.017508,-0.45177 -1.017508,-1.01751 -3e-6,-0.56575 0.451763,-1.01958 1.017508,-1.01958 z m -2.999298,2.40968 c 0.621644,0.0851 1.097089,0.61011 1.097089,1.25625 0,0.70585 -0.56539,1.27124 -1.271241,1.27124 -0.03976,0 -0.07863,-0.003 -0.117305,-0.006 -0.02953,-0.57478 0.0047,-1.1604 0.109556,-1.7477 0.04714,-0.26395 0.108997,-0.52143 0.181901,-0.77359 z m 10.841199,0.80305 a 0.26460995,0.26460995 0 0 0 -0.24598,0.18552 l -0.290939,0.94154 -0.941546,0.29301 a 0.26460995,0.26460995 0 0 0 -0.07441,0.4687 l 0.805116,0.56844 -0.01188,0.98599 a 0.26460995,0.26460995 0 0 0 0.42168,0.21497 l 0.789099,-0.58962 0.933794,0.31626 a 0.26460995,0.26460995 0 0 0 0.335891,-0.3359 l -0.316259,-0.93173 0.58756,-0.79116 a 0.26460995,0.26460995 0 0 0 -0.214455,-0.42168 l -0.984438,0.0114 -0.570508,-0.80461 a 0.26460995,0.26460995 0 0 0 -0.222724,-0.1111 z m -7.609356,0.3731 c -0.448932,0 -0.818042,0.36912 -0.818039,0.81804 0,0.44893 0.369107,0.81856 0.818039,0.81856 0.448932,0 0.818555,-0.36963 0.818555,-0.81856 2e-6,-0.44892 -0.369623,-0.81804 -0.818555,-0.81804 z m 7.709091,0.48214 0.340029,0.48059 a 0.26460995,0.26460995 0 0 0 0.22066,0.11163 l 0.58756,-0.008 -0.351398,0.47284 a 0.26460995,0.26460995 0 0 0 -0.03927,0.24184 l 0.189654,0.55863 -0.556557,-0.18914 a 0.26460995,0.26460995 0 0 0 -0.24443,0.0372 l -0.470254,0.3514 0.0078,-0.58808 a 0.26460995,0.26460995 0 0 0 -0.111622,-0.21859 l -0.48059,-0.3421 0.56069,-0.17363 a 0.26460995,0.26460995 0 0 0 0.174148,-0.17364 z m -7.709091,0.047 c 0.162936,0 0.288872,0.12594 0.288872,0.28887 0,0.16294 -0.125936,0.28939 -0.288872,0.28939 -0.162936,0 -0.288872,-0.12645 -0.288872,-0.28939 0,-0.16293 0.125934,-0.28887 0.288872,-0.28887 z m 1.582333,2.82825 a 0.26458349,0.26458349 0 0 0 -0.265618,0.26355 0.26458349,0.26458349 0 0 0 0.265618,0.26562 0.26458349,0.26458349 0 0 0 0.263548,-0.26562 0.26458349,0.26458349 0 0 0 -0.263548,-0.26355 z m -3.398759,0.74207 c 0.703649,0.003 1.269691,0.56748 1.269688,1.27176 0,0.47337 -0.256849,0.88152 -0.637169,1.10071 -0.605269,-0.58335 -1.10984,-1.25893 -1.492933,-1.99936 0.231212,-0.22981 0.53504,-0.36714 0.860414,-0.37311 z m 7.736479,0.93328 c 0.712763,0.19453 1.521867,0.29831 2.420006,0.31058 -0.20442,0.44912 -0.71559,0.76998 -1.257803,0.76998 -0.64171,0 -1.086025,-0.45332 -1.162203,-1.08056 z m -4.22455,0.59583 c -0.448932,0 -0.820624,0.36963 -0.820621,0.81855 0,0.44892 0.371689,0.81856 0.820621,0.81856 0.448934,0 0.818036,-0.36964 0.818039,-0.81856 2e-6,-0.44893 -0.369105,-0.81855 -0.818039,-0.81855 z m 2.675805,0.12919 c -0.448932,0 -0.818555,0.36911 -0.818555,0.81804 0,0.44892 0.369623,0.81855 0.818555,0.81855 0.448935,0 0.820106,-0.36963 0.820106,-0.81855 2e-6,-0.44893 -0.371171,-0.81804 -0.820106,-0.81804 z m -2.675805,0.40049 c 0.162938,0 0.288872,0.12594 0.288872,0.28887 0,0.16294 -0.125936,0.28888 -0.288872,0.28888 -0.162936,0 -0.290939,-0.12594 -0.290939,-0.28888 0,-0.16294 0.128,-0.28887 0.290939,-0.28887 z m 2.675805,0.12868 c 0.162939,0 0.290942,0.12593 0.290938,0.28887 0,0.16293 -0.128002,0.28939 -0.290938,0.28939 -0.162936,0 -0.289388,-0.12646 -0.289388,-0.28939 0,-0.16294 0.126452,-0.28887 0.289388,-0.28887 z" />
    </g>
  </g>
</svg>
