<svg width="31" height="24" viewBox="0 0 31 24" fill="none" xmlns="http://www.w3.org/2000/svg">
<path d="M28.4168 0H26.4793C26.1224 0 25.8335 0.288859 25.8335 0.645833C25.8335 1.00281 26.1224 1.29167 26.4793 1.29167H28.4168C29.1295 1.29167 29.7085 1.87128 29.7085 2.58333V4.52083C29.7085 4.87781 29.9974 5.16667 30.3543 5.16667C30.7113 5.16667 31.0002 4.87781 31.0002 4.52083V2.58333C31.0002 1.15859 29.8409 0 28.4168 0Z" fill="#5E5E5E"/>
<path d="M0.645833 5.16667C1.00281 5.16667 1.29167 4.87781 1.29167 4.52083V2.58333C1.29167 1.87128 1.87065 1.29167 2.58333 1.29167H4.52083C4.87781 1.29167 5.16667 1.00281 5.16667 0.645833C5.16667 0.288859 4.87781 0 4.52083 0H2.58333C1.15922 0 0 1.15859 0 2.58333V4.52083C0 4.87781 0.288859 5.16667 0.645833 5.16667Z" fill="#5E5E5E"/>
<path d="M30.3543 18.0833C29.9974 18.0833 29.7085 18.3721 29.7085 18.7291V20.6666C29.7085 21.3786 29.1295 21.9583 28.4168 21.9583H26.4793C26.1224 21.9583 25.8335 22.2471 25.8335 22.6041C25.8335 22.9611 26.1224 23.2499 26.4793 23.2499H28.4168C29.8409 23.2499 31.0002 22.0913 31.0002 20.6666V18.7291C31.0002 18.3721 30.7113 18.0833 30.3543 18.0833Z" fill="#5E5E5E"/>
<path d="M4.52083 21.9583H2.58333C1.87065 21.9583 1.29167 21.3786 1.29167 20.6666V18.7291C1.29167 18.3721 1.00281 18.0833 0.645833 18.0833C0.288859 18.0833 0 18.3721 0 18.7291V20.6666C0 22.0913 1.15922 23.2499 2.58333 23.2499H4.52083C4.87781 23.2499 5.16667 22.9611 5.16667 22.6041C5.16667 22.2471 4.87781 21.9583 4.52083 21.9583Z" fill="#5E5E5E"/>
<path d="M4.52083 3.875C4.16386 3.875 3.875 4.16386 3.875 4.52083V18.7292C3.875 19.0861 4.16386 19.375 4.52083 19.375C4.87781 19.375 5.16667 19.0861 5.16667 18.7292V4.52083C5.16667 4.16386 4.87781 3.875 4.52083 3.875Z" fill="#5E5E5E"/>
<path d="M17.4373 3.875C17.0804 3.875 16.7915 4.16386 16.7915 4.52083V18.7292C16.7915 19.0861 17.0804 19.375 17.4373 19.375C17.7943 19.375 18.0832 19.0861 18.0832 18.7292V4.52083C18.0832 4.16386 17.7943 3.875 17.4373 3.875Z" fill="#5E5E5E"/>
<path d="M26.4793 3.875C26.1224 3.875 25.8335 4.16386 25.8335 4.52083V18.7292C25.8335 19.0861 26.1224 19.375 26.4793 19.375C26.8363 19.375 27.1252 19.0861 27.1252 18.7292V4.52083C27.1252 4.16386 26.8363 3.875 26.4793 3.875Z" fill="#5E5E5E"/>
<path d="M8.39583 3.875C8.03886 3.875 7.75 4.16386 7.75 4.52083V14.8542C7.75 15.2111 8.03886 15.5 8.39583 15.5C8.75281 15.5 9.04167 15.2111 9.04167 14.8542V4.52083C9.04167 4.16386 8.75281 3.875 8.39583 3.875Z" fill="#5E5E5E"/>
<path d="M10.9793 3.875C10.6224 3.875 10.3335 4.16386 10.3335 4.52083V14.8542C10.3335 15.2111 10.6224 15.5 10.9793 15.5C11.3363 15.5 11.6252 15.2111 11.6252 14.8542V4.52083C11.6252 4.16386 11.3363 3.875 10.9793 3.875Z" fill="#5E5E5E"/>
<path d="M13.5623 3.875C13.2054 3.875 12.9165 4.16386 12.9165 4.52083V14.8542C12.9165 15.2111 13.2054 15.5 13.5623 15.5C13.9193 15.5 14.2082 15.2111 14.2082 14.8542V4.52083C14.2082 4.16386 13.9193 3.875 13.5623 3.875Z" fill="#5E5E5E"/>
<path d="M20.0208 3.875C19.6639 3.875 19.375 4.16386 19.375 4.52083V14.8542C19.375 15.2111 19.6639 15.5 20.0208 15.5C20.3778 15.5 20.6667 15.2111 20.6667 14.8542V4.52083C20.6667 4.16386 20.3778 3.875 20.0208 3.875Z" fill="#5E5E5E"/>
<path d="M23.8958 3.875C23.5389 3.875 23.25 4.16386 23.25 4.52083V14.8542C23.25 15.2111 23.5389 15.5 23.8958 15.5C24.2528 15.5 24.5417 15.2111 24.5417 14.8542V4.52083C24.5417 4.16386 24.2528 3.875 23.8958 3.875Z" fill="#5E5E5E"/>
<path d="M23.8958 16.7917C23.5389 16.7917 23.25 17.0806 23.25 17.4376V18.7292C23.25 19.0862 23.5389 19.3751 23.8958 19.3751C24.2528 19.3751 24.5417 19.0862 24.5417 18.7292V17.4376C24.5417 17.0806 24.2528 16.7917 23.8958 16.7917Z" fill="#5E5E5E"/>
<path d="M20.0208 16.7917C19.6639 16.7917 19.375 17.0806 19.375 17.4376V18.7292C19.375 19.0862 19.6639 19.3751 20.0208 19.3751C20.3778 19.3751 20.6667 19.0862 20.6667 18.7292V17.4376C20.6667 17.0806 20.3778 16.7917 20.0208 16.7917Z" fill="#5E5E5E"/>
<path d="M13.5623 16.7917C13.2054 16.7917 12.9165 17.0806 12.9165 17.4376V18.7292C12.9165 19.0862 13.2054 19.3751 13.5623 19.3751C13.9193 19.3751 14.2082 19.0862 14.2082 18.7292V17.4376C14.2082 17.0806 13.9193 16.7917 13.5623 16.7917Z" fill="#5E5E5E"/>
<path d="M10.9793 16.7917C10.6224 16.7917 10.3335 17.0806 10.3335 17.4376V18.7292C10.3335 19.0862 10.6224 19.3751 10.9793 19.3751C11.3363 19.3751 11.6252 19.0862 11.6252 18.7292V17.4376C11.6252 17.0806 11.3363 16.7917 10.9793 16.7917Z" fill="#5E5E5E"/>
<path d="M8.39583 16.7917C8.03886 16.7917 7.75 17.0806 7.75 17.4376V18.7292C7.75 19.0862 8.03886 19.3751 8.39583 19.3751C8.75281 19.3751 9.04167 19.0862 9.04167 18.7292V17.4376C9.04167 17.0806 8.75281 16.7917 8.39583 16.7917Z" fill="#5E5E5E"/>
<path d="M30.3542 10.3333H0.645833C0.288859 10.3333 0 10.6221 0 10.9791C0 11.3361 0.288859 11.6249 0.645833 11.6249H30.3542C30.7111 11.6249 31 11.3361 31 10.9791C31 10.6221 30.7111 10.3333 30.3542 10.3333Z" fill="#D32E2E"/>
<path d="M8.39583 16.7917C8.03886 16.7917 7.75 17.0805 7.75 17.4375V18.7292C7.75 19.0861 8.03886 19.375 8.39583 19.375C8.75281 19.375 9.04167 19.0861 9.04167 18.7292V17.4375C9.04167 17.0805 8.75281 16.7917 8.39583 16.7917ZM10.9792 16.7917C10.6222 16.7917 10.3333 17.0805 10.3333 17.4375V18.7292C10.3333 19.0861 10.6222 19.375 10.9792 19.375C11.3361 19.375 11.625 19.0861 11.625 18.7292V17.4375C11.625 17.0805 11.3361 16.7917 10.9792 16.7917ZM13.5625 16.7917C13.2055 16.7917 12.9167 17.0805 12.9167 17.4375V18.7292C12.9167 19.0861 13.2055 19.375 13.5625 19.375C13.9195 19.375 14.2083 19.0861 14.2083 18.7292V17.4375C14.2083 17.0805 13.9195 16.7917 13.5625 16.7917ZM4.52083 21.9583H2.58333C1.87065 21.9583 1.29167 21.3787 1.29167 20.6667V18.7292C1.29167 18.3722 1.00281 18.0833 0.645833 18.0833C0.288859 18.0833 0 18.3722 0 18.7292V20.6667C0 22.0914 1.15922 23.25 2.58333 23.25H4.52083C4.87781 23.25 5.16667 22.9611 5.16667 22.6042C5.16667 22.2472 4.87781 21.9583 4.52083 21.9583ZM0.645833 5.16667C1.00281 5.16667 1.29167 4.87781 1.29167 4.52083V2.58333C1.29167 1.87128 1.87065 1.29167 2.58333 1.29167H4.52083C4.87781 1.29167 5.16667 1.00281 5.16667 0.645833C5.16667 0.288859 4.87781 0 4.52083 0H2.58333C1.15922 0 0 1.15859 0 2.58333V4.52083C0 4.87781 0.288859 5.16667 0.645833 5.16667ZM30.3542 10.3333H27.125V4.52083C27.125 4.16386 26.8361 3.875 26.4792 3.875C26.1222 3.875 25.8333 4.16386 25.8333 4.52083V10.3333H24.5417V4.52083C24.5417 4.16386 24.2528 3.875 23.8958 3.875C23.5389 3.875 23.25 4.16386 23.25 4.52083V10.3333H20.6667V4.52083C20.6667 4.16386 20.3778 3.875 20.0208 3.875C19.6639 3.875 19.375 4.16386 19.375 4.52083V10.3333H18.0833V4.52083C18.0833 4.16386 17.7945 3.875 17.4375 3.875C17.0805 3.875 16.7917 4.16386 16.7917 4.52083V10.3333H14.2083V4.52083C14.2083 4.16386 13.9195 3.875 13.5625 3.875C13.2055 3.875 12.9167 4.16386 12.9167 4.52083V10.3333H11.625V4.52083C11.625 4.16386 11.3361 3.875 10.9792 3.875C10.6222 3.875 10.3333 4.16386 10.3333 4.52083V10.3333H9.04167V4.52083C9.04167 4.16386 8.75281 3.875 8.39583 3.875C8.03886 3.875 7.75 4.16386 7.75 4.52083V10.3333H5.16667V4.52083C5.16667 4.16386 4.87781 3.875 4.52083 3.875C4.16386 3.875 3.875 4.16386 3.875 4.52083V10.3333H0.645833C0.288859 10.3333 0 10.6222 0 10.9792C0 11.3361 0.288859 11.625 0.645833 11.625H3.875V18.7292C3.875 19.0861 4.16386 19.375 4.52083 19.375C4.87781 19.375 5.16667 19.0861 5.16667 18.7292V11.625H7.75V14.8542C7.75 15.2111 8.03886 15.5 8.39583 15.5C8.75281 15.5 9.04167 15.2111 9.04167 14.8542V11.625H10.3333V14.8542C10.3333 15.2111 10.6222 15.5 10.9792 15.5C11.3361 15.5 11.625 15.2111 11.625 14.8542V11.625H12.9167V14.8542C12.9167 15.2111 13.2055 15.5 13.5625 15.5C13.9195 15.5 14.2083 15.2111 14.2083 14.8542V11.625H16.7917V18.7292C16.7917 19.0861 17.0805 19.375 17.4375 19.375C17.7945 19.375 18.0833 19.0861 18.0833 18.7292V11.625H19.375V14.8542C19.375 15.2111 19.6639 15.5 20.0208 15.5C20.3778 15.5 20.6667 15.2111 20.6667 14.8542V11.625H23.25V14.8542C23.25 15.2111 23.5389 15.5 23.8958 15.5C24.2528 15.5 24.5417 15.2111 24.5417 14.8542V11.625H25.8333V18.7292C25.8333 19.0861 26.1222 19.375 26.4792 19.375C26.8361 19.375 27.125 19.0861 27.125 18.7292V11.625H30.3542C30.7111 11.625 31 11.3361 31 10.9792C31 10.6222 30.7111 10.3333 30.3542 10.3333ZM28.4167 0H26.4792C26.1222 0 25.8333 0.288859 25.8333 0.645833C25.8333 1.00281 26.1222 1.29167 26.4792 1.29167H28.4167C29.1294 1.29167 29.7083 1.87128 29.7083 2.58333V4.52083C29.7083 4.87781 29.9972 5.16667 30.3542 5.16667C30.7111 5.16667 31 4.87781 31 4.52083V2.58333C31 1.15859 29.8408 0 28.4167 0ZM20.0208 16.7917C19.6639 16.7917 19.375 17.0805 19.375 17.4375V18.7292C19.375 19.0861 19.6639 19.375 20.0208 19.375C20.3778 19.375 20.6667 19.0861 20.6667 18.7292V17.4375C20.6667 17.0805 20.3778 16.7917 20.0208 16.7917ZM30.3542 18.0833C29.9972 18.0833 29.7083 18.3722 29.7083 18.7292V20.6667C29.7083 21.3787 29.1294 21.9583 28.4167 21.9583H26.4792C26.1222 21.9583 25.8333 22.2472 25.8333 22.6042C25.8333 22.9611 26.1222 23.25 26.4792 23.25H28.4167C29.8408 23.25 31 22.0914 31 20.6667V18.7292C31 18.3722 30.7111 18.0833 30.3542 18.0833ZM23.8958 16.7917C23.5389 16.7917 23.25 17.0805 23.25 17.4375V18.7292C23.25 19.0861 23.5389 19.375 23.8958 19.375C24.2528 19.375 24.5417 19.0861 24.5417 18.7292V17.4375C24.5417 17.0805 24.2528 16.7917 23.8958 16.7917Z" fill="url(#paint0_linear_1015_79)"/>
<defs>
<linearGradient id="paint0_linear_1015_79" x1="-0.914003" y1="3.97103" x2="31.914" y2="19.279" gradientUnits="userSpaceOnUse">
<stop stop-color="white" stop-opacity="0.2"/>
<stop offset="1" stop-color="white" stop-opacity="0"/>
</linearGradient>
</defs>
</svg>
